<?xml version="1.0" standalone="no"?>
<!DOCTYPE svg PUBLIC "-//W3C//DTD SVG 20010904//EN"
 "http://www.w3.org/TR/2001/REC-SVG-20010904/DTD/svg10.dtd">
<svg version="1.0" xmlns="http://www.w3.org/2000/svg"
 width="302.000000pt" height="302.000000pt" viewBox="0 0 302.000000 302.000000"
 preserveAspectRatio="xMidYMid meet">
<metadata>
Created by potrace 1.11, written by Peter Selinger 2001-2013
</metadata>
<g transform="translate(0.000000,302.000000) scale(0.100000,-0.100000)"
fill="#000000" stroke="none">
<path d="M2589 2836 c-2 -2 -22 -6 -44 -9 -73 -10 -589 -98 -595 -102 -3 -1
-27 -6 -55 -9 -88 -12 -119 -17 -145 -22 -56 -10 -86 -16 -105 -19 -37 -6 -99
-16 -155 -25 -30 -6 -75 -13 -100 -16 -25 -3 -59 -12 -77 -19 -64 -27 -61 7
-66 -735 -3 -371 -8 -693 -11 -715 -4 -22 -9 -51 -11 -65 -12 -86 -42 -184
-67 -222 -10 -14 -18 -29 -18 -32 0 -6 -11 -21 -61 -80 -48 -58 -50 -67 -50
-267 -1 -214 3 -229 69 -256 110 -46 304 69 427 252 52 79 110 194 132 261 11
36 22 54 32 53 9 0 84 -24 166 -53 l150 -53 5 -194 c3 -120 9 -202 17 -214 6
-11 28 -30 50 -41 34 -19 54 -21 203 -20 156 1 167 3 198 24 47 34 55 56 55
159 0 66 3 93 12 93 6 0 38 -9 70 -20 68 -23 84 -24 137 -8 56 17 81 55 133
203 56 158 59 176 40 222 -31 73 -35 76 -270 158 -88 31 -163 59 -167 61 -4 3
22 47 57 98 36 52 72 109 79 128 21 48 29 140 18 182 -10 35 -9 36 16 37 50 1
77 9 97 30 18 18 20 35 23 224 4 245 -2 269 -71 281 -23 3 -240 6 -482 6 -242
-1 -448 1 -457 4 -20 6 -25 58 -7 70 6 4 220 41 475 84 305 51 471 83 488 94
14 9 33 30 42 47 15 31 12 89 -11 211 -3 13 -10 50 -16 82 -11 63 -31 101 -60
116 -20 11 -83 23 -90 16z m-546 -1282 c-16 -93 -7 -159 33 -237 13 -28 23
-51 21 -53 -1 -2 -54 15 -117 37 -117 40 -167 49 -207 35 -23 -7 -23 -7 -23
103 0 85 3 112 14 118 21 11 281 9 279 -3z"/>
<path d="M610 2820 c-131 -6 -154 -11 -166 -38 -4 -9 -8 -100 -9 -202 -2 -102
-6 -192 -9 -201 -5 -12 -26 -15 -104 -16 -118 0 -150 -6 -176 -33 -19 -19 -21
-35 -24 -183 -2 -96 1 -173 7 -189 19 -50 50 -61 176 -63 63 0 118 -4 121 -8
9 -8 12 -372 4 -406 -5 -18 -21 -29 -80 -51 -95 -34 -192 -83 -211 -106 -11
-13 -14 -58 -16 -203 -1 -197 7 -253 41 -277 30 -21 53 -18 152 21 49 19 90
35 91 35 1 0 8 -7 16 -15 18 -18 14 -112 -6 -132 -7 -7 -42 -16 -77 -19 -120
-10 -122 -14 -123 -262 0 -181 2 -195 21 -214 29 -29 71 -33 317 -33 242 1
297 10 341 54 56 55 58 65 60 456 1 198 3 363 3 367 1 4 35 23 76 43 62 30 76
41 83 66 4 17 7 120 7 229 -1 169 -3 201 -18 224 -20 30 -32 33 -100 22 -31
-5 -39 -3 -45 13 -8 22 -8 179 0 187 3 2 27 7 54 10 69 6 78 10 96 42 17 28
21 95 19 284 -1 70 -4 81 -28 108 -24 26 -37 32 -81 34 -29 2 -55 6 -59 9 -3
4 -6 94 -7 202 -2 241 0 236 -133 245 -49 3 -144 3 -213 0z"/>
</g>
</svg>
