<svg fill="none" height="297" viewBox="0 0 285 297" width="285" xmlns="http://www.w3.org/2000/svg"><g fill="#f48780"><path d="m95.9995 228.016-95.9995 68.103h95.462z"/><path d="m276.281 271.658h-46.011l13.868-159.158h18.383z"/><path d="m191.031 228.016-96.1066 68.103h95.5696z"/><path d="m285 228.897-96 68.103h95.462z"/><path d="m222.422 92.1332c12.884 0 23.328-10.4691 23.328-23.3835 0-12.9143-10.444-23.3835-23.328-23.3835-12.883 0-23.328 10.4692-23.328 23.3835 0 12.9144 10.445 23.3835 23.328 23.3835z"/><path d="m253.607 103.974c5.51 0 9.978-4.4684 9.978-9.9811s-4.468-9.9815-9.978-9.9815c-5.511 0-9.978 4.4688-9.978 9.9815s4.467 9.9811 9.978 9.9811z"/><path d="m179.529 96.7669c22.621 0 40.958-18.3814 40.958-41.0559s-18.337-41.0558-40.958-41.0558-40.959 18.3813-40.959 41.0558 18.338 41.0559 40.959 41.0559z"/><path d="m122.123 83.6203c23.036 0 41.711-18.719 41.711-41.8101 0-23.0912-18.675-41.8102-41.711-41.8102-23.0367 0-41.7113 18.719-41.7113 41.8102 0 23.0911 18.6746 41.8101 41.7113 41.8101z"/><path d="m143.516 107.435c15.436 0 27.95-12.5438 27.95-28.0172 0-15.4735-12.514-28.0172-27.95-28.0172-15.437 0-27.951 12.5437-27.951 28.0172 0 15.4734 12.514 28.0172 27.951 28.0172z"/></g></svg>