<svg fill="none" height="201" viewBox="0 0 320 201" width="320" xmlns="http://www.w3.org/2000/svg" xmlns:xlink="http://www.w3.org/1999/xlink"><clipPath id="a"><path d="m64 26h159v168.027h-159z"/></clipPath><path d="m0 0h320v201h-320z" fill="#fff"/><circle cx="88.5" cy="92.5" fill="#fff3e0" r="81.5"/><g clip-path="url(#a)"><path d="m210.176 140.696-5.831-69.9854h-6.807l-8.75 71.9294z" fill="#f7c98b"/><g fill="#7d6867"><path d="m141.166 57.748c8.767 0 15.874-7.1071 15.874-15.874 0-8.767-7.107-15.874-15.874-15.874s-15.874 7.107-15.874 15.874c0 8.7669 7.107 15.874 15.874 15.874z"/><path d="m169.027 66.6608c10.11 0 18.305-8.1957 18.305-18.3055s-8.195-18.3055-18.305-18.3055-18.306 8.1957-18.306 18.3055 8.196 18.3055 18.306 18.3055z"/><path d="m148.29 70.7106c7.159 0 12.962-5.8036 12.962-12.9627 0-7.159-5.803-12.9626-12.962-12.9626s-12.963 5.8036-12.963 12.9626c0 7.1591 5.804 12.9627 12.963 12.9627z"/><path d="m74.7751 80.1114c5.9509 0 10.7751-4.8242 10.7751-10.7751 0-5.951-4.8242-10.7751-10.7751-10.7751s-10.7751 4.8241-10.7751 10.7751c0 5.9509 4.8242 10.7751 10.7751 10.7751z"/><path d="m107.735 89.0161c10.11 0 18.305-8.1956 18.305-18.3055 0-10.1098-8.195-18.3054-18.305-18.3054-10.1102 0-18.3058 8.1956-18.3058 18.3054 0 10.1099 8.1956 18.3055 18.3058 18.3055z"/><path d="m87.0059 93.066c7.1591 0 12.9626-5.8036 12.9626-12.9627s-5.8035-12.9627-12.9626-12.9627-12.9627 5.8036-12.9627 12.9627 5.8036 12.9627 12.9627 12.9627z"/><path d="m183.933 60.0249c5.012 0 9.076-4.0632 9.076-9.0754 0-5.0123-4.064-9.0755-9.076-9.0755s-9.075 4.0632-9.075 9.0755c0 5.0122 4.063 9.0754 9.075 9.0754z"/><path d="m199.482 64.7091c1.697 0 3.074-1.3763 3.074-3.074s-1.377-3.0739-3.074-3.0739c-1.698 0-3.074 1.3762-3.074 3.0739s1.376 3.074 3.074 3.074z"/></g><path d="m214.713 193.831v-73.23l-41.466 29.813v-31.106l-43.092 30.455v-30.455l-42.4416 32.074 1.293 42.449z" fill="#c3302f"/><path d="m104.758 156.57v10.181h17.2v-8.457z" fill="#f7c98b"/><path d="m162.773 158.88h-23.03v9.034h23.03z" fill="#f7c98b"/><path d="m180.07 158.879v11.076h21.176v-13.385z" fill="#f7c98b"/><path d="m123.706 194.035v-19.119l24.584 1.456v17.46z" fill="#f7c98b"/><path d="m185.804 174.916h-21.282v18.916h21.282z" fill="#f7c98b"/><path d="m76.9707 193.831v-9.457l6.0747 3.001 14.2557-2.904 5.8149 3.432 18.842 3.7 14.044-2.504h16.752l10.011 1.976 21.42-3.432 15.297 2.635 10.693 1.057 12.825-2.236v4.732z" fill="#f26b63"/></g></svg>