<svg fill="none" height="229" viewBox="0 0 221 229" width="221" xmlns="http://www.w3.org/2000/svg"><g fill="#cde9e4"><path d="m211.753 182.917-8.33-95.917h-14.244l-10.413 119.167-31.155 22.083.417-51.917-73.9726 52.334.3332-52.334-74.3886 52.667h73.5556.4165 72.6389 1 72.972l.417-52.667z"/><path d="m192.844 76c3.266 0 5.914-2.649 5.914-5.9167s-2.648-5.9166-5.914-5.9166c-3.267 0-5.915 2.6489-5.915 5.9166s2.648 5.9167 5.915 5.9167z"/><path d="m89.7162 64.3333c1.4161 10.5834 10.4958 18.75 21.4918 18.75 7.581 0 14.245-3.9166 18.16-9.8333 3.082 1 6.331 1.5 9.746 1.5 8.164 0 15.578-3.0833 21.242-8.1667 3.166 2.8334 7.414 4.5834 11.996 4.5834 9.996 0 18.076-8.0834 18.076-18.0834s-8.08-18.0833-18.076-18.0833c-.833 0-1.666.0833-2.499.1667-3.499-13.75-15.911-23.9167-30.739-23.9167-6.081 0-11.745 1.75-16.66 4.6667-5.581-9.50003-15.994-15.9167-27.823-15.9167-17.9099 0-32.4044 14.5-32.4044 32.3333 0 16.25 11.9954 29.6667 27.4896 32z"/></g></svg>