<svg fill="none" height="90" viewBox="0 0 90 90" width="90" xmlns="http://www.w3.org/2000/svg"><path d="m89.2902 45c0 24.8482-20.0119 45-44.6875 45s-44.6027-20.1518-44.6027-45 20.0119-45 44.6875-45 44.6027 20.1518 44.6027 45z" fill="#cde9e4"/><path d="m81.3193 44.2315c0 20.3226-16.4505 36.8881-36.6319 36.8881-20.1815 0-36.7167-16.5655-36.7167-36.8881 0-20.4079 16.4504-36.88799 36.6319-36.88799 20.1814 0 36.7167 16.48009 36.7167 36.88799z" fill="#fff9e6"/><path d="m2.54378 9.22201s24.76042-9.73435 36.03832 0c11.2779 9.73439 25.9476 41.32829 25.9476 41.32829s14.3305-8.5389 23.658-2.1347l-14.1609 36.6318-12.9738-17.6755s-24.93 2.2201-44.0091-9.3928c-18.99431-11.6129-14.50012-48.75709-14.50012-48.75709z" fill="#107393"/><g fill="#d9e0a2"><path d="m10.854 45 40.0237-26.8121 2.1199.9392-40.9565 28.52z"/><path d="m7.29248 55.0759 39.93892-26.8121 2.1199.9393-40.95647 28.6053z"/><path d="m21.7925 55.0759 40.0237-26.8121 2.0351.9393-40.9565 28.6053z"/><path d="m34.0879 69.4213 12.9738-22.4573 1.1871.0854-12.9738 23.6527z"/><path d="m29.6787 24.165 7.6317-11.2713 1.1871 6.4895-7.8012 10.3321z"/><path d="m54.2695 47.0493 7.6317-11.2713 1.2719 6.4895-7.886 10.3321z"/></g></svg>