<svg fill="none" height="91" viewBox="0 0 91 91" width="91" xmlns="http://www.w3.org/2000/svg"><path d="m91 45.5432c0 25.1482-20.3951 45.5432-45.5432 45.5432-25.1482 0-45.4568-20.395-45.4568-45.5432 0-25.1481 20.3951-45.5432 45.5432-45.5432 25.1482 0 45.4568 20.3951 45.4568 45.5432z" fill="#f1ddbf"/><path d="m82.8766 44.7655c0 20.5679-16.7654 37.3333-37.3333 37.3333s-37.41976-16.7654-37.41976-37.3333c0-20.6544 16.76546-37.33337 37.33336-37.33337s37.4197 16.67897 37.4197 37.33337z" fill="#ddb9ac"/><path d="m2.59269 9.33331s25.23461-9.851849 36.72841 0c11.4938 9.85189 26.4444 41.82719 26.4444 41.82719s14.605-8.642 24.1111-2.1605l-14.4321 37.0741-13.2222-17.8889s-25.4074 2.2469-44.8518-9.5062c-19.35805-11.7531-14.77781-49.34569-14.77781-49.34569z" fill="#c82027"/><g fill="#f8cfbf"><path d="m11.0615 45.5432 40.7902-27.1359 2.1604.9507-41.7407 28.8642z"/><path d="m7.43213 55.7408 40.70367-27.1358 2.1605.9506-41.74071 28.9506z"/><path d="m22.21 55.7408 40.7901-27.1358 2.0741.9506-41.7408 28.9506z"/><path d="m34.7407 70.2593 13.2222-22.7284 1.2099.0864-13.2222 23.9383z"/><path d="m30.2471 24.4567 7.7777-11.4074 1.2099 6.5679-7.9506 10.4568z"/><path d="m55.3086 47.6172 7.7778-11.4074 1.2963 6.5679-8.0371 10.4568z"/></g></svg>