<svg fill="none" height="278" viewBox="0 0 227 278" width="227" xmlns="http://www.w3.org/2000/svg" xmlns:xlink="http://www.w3.org/1999/xlink"><clipPath id="a"><path d="m94.8564 0h68.6497v68.6497h-68.6497z"/></clipPath><path d="m149.941 222.037c0 30.903-25.035 55.963-55.9067 55.963-30.872 0-55.9064-25.06-55.9064-55.963s25.0344-55.962 55.9064-55.962c30.8717 0 55.9067 25.059 55.9067 55.962z" fill="#cde9e4"/><path d="m140.735 222.037c0 25.847-20.881 46.748-46.7007 46.748-25.8202 0-46.7009-20.901-46.7009-46.748 0-25.846 20.8807-46.747 46.7009-46.747 25.8197-.113 46.7007 20.901 46.7007 46.747z" fill="#fff9e6"/><path d="m129.734 211.587s-1.909 3.258-6.063 4.607c-4.153 1.348-15.604 4.158-15.604 4.495s-.674 4.72 6.96 7.08c7.746 2.359 21.442-1.574 21.33-7.754-.112-6.181-1.796-9.889-3.256-10.339-1.571-.449-3.367 1.911-3.367 1.911z" fill="#107393"/><path d="m132.203 213.385c0 2.022 2.246 7.529-2.469 9.214-4.715 1.574-11.788 3.147-13.584 1.798-1.796-1.348-5.838-2.697-5.838-2.697l-.561.787 4.041 2.585 6.399 1.348 8.42-2.697 4.041-1.91 1.123-5.17z" fill="#fff9e6"/><path d="m115.252 195.629s-.561 3.821-3.817 6.63c-3.368 2.81-12.9102 9.777-12.6857 10.114.1123.337 1.1226 4.608 9.2057 3.821 7.858-.674 18.972-9.664 16.502-15.283-2.469-5.619-5.501-8.428-6.96-8.203-1.459.112-2.245 2.921-2.245 2.921z" fill="#107393"/><path d="m118.171 196.416c.785 1.91 4.939 6.181 1.234 9.439-3.704 3.259-9.654 7.417-11.899 6.855-2.246-.562-6.399-.337-6.399-.337l-.225.899 4.715.899 6.399-1.236 6.736-5.731 3.031-3.371-.898-5.169z" fill="#fff9e6"/><path d="m94.9324 187.426s1.6839 3.371.5613 7.642c-1.1227 4.27-5.0518 15.395-4.8273 15.507.3368.225 3.5924 3.147 9.7666-2.023 6.175-5.169 10.328-18.878 5.164-22.137-5.276-3.259-9.3175-3.933-10.4401-2.922-1.1226 1.124-.2245 3.933-.2245 3.933z" fill="#107393"/><path d="m97.8512 186.302c1.6839 1.124 7.5218 2.248 6.2868 7.08s-3.705 11.574-5.8377 12.361c-2.133.787-5.5009 3.371-5.5009 3.371l.3368.899 4.3782-2.022 4.6026-4.72 2.358-8.541.561-4.495-3.705-3.82z" fill="#fff9e6"/><path d="m71.1329 194.281s3.3678 1.798 4.9395 5.843c1.5716 4.046 5.0518 15.396 5.3885 15.396.3368 0 4.715.449 6.6235-7.417 1.9084-7.866-2.8066-21.351-8.981-20.789-6.1744.449-9.7667 2.36-10.1035 3.82-.2245 1.461 2.133 3.147 2.133 3.147z" fill="#107393"/><path d="m72.8168 191.696c2.0207-.112 7.4093-2.584 9.3177 1.911 1.9085 4.495 3.8169 11.574 2.582 13.485-1.2349 1.91-2.3575 5.955-2.3575 5.955l.7859.562 2.3575-4.157.8981-6.518-3.1434-8.316-2.133-3.933-5.164-.787z" fill="#fff9e6"/><path d="m58.6718 218.666s3.7047-.899 7.6338 1.124c3.9292 2.023 13.9205 8.316 14.145 8.091.2246-.225 3.9292-2.809.1123-10.001-3.7047-7.192-16.1657-14.16-20.4317-9.777-4.2659 4.383-5.7253 8.203-5.0517 9.552.6735 1.348 3.5923 1.011 3.5923 1.011z" fill="#107393"/><path d="m58.2228 215.632c1.4594-1.461 3.8169-6.855 8.3074-4.607 4.4904 2.247 10.5526 6.18 10.7771 8.428.3368 2.247 2.133 6.068 2.133 6.068l.8981-.112-1.0104-4.72-3.5924-5.506-7.8583-4.158-4.266-1.574-4.4904 2.81z" fill="#fff9e6"/><path d="m68.4386 245.973s1.7962-3.371 5.8376-4.944c4.1537-1.573 15.3799-4.945 15.3799-5.282s.449-4.72-7.297-6.742c-7.8584-1.911-21.3298 2.697-20.8807 8.877.449 6.181 2.3575 9.777 3.8169 10.114s3.1433-2.023 3.1433-2.023z" fill="#107393"/><path d="m65.8566 244.288c-.1122-2.023-2.582-7.417 2.0207-9.328 4.6028-1.798 11.563-3.82 13.4714-2.472 1.9085 1.236 5.9499 2.472 5.9499 2.472l.5613-.786-4.1537-2.36-6.5111-1.011-8.3074 3.146-3.9292 2.135-.8981 5.169z" fill="#fff9e6"/><path d="m81.7978 266.875s-1.1227-3.708.7858-7.642c1.9084-3.933 7.7461-14.271 7.4093-14.496-.2246-.225-2.9188-3.708-9.9913.225-6.9603 4.045-13.4715 16.744-8.8687 20.902 4.6027 4.157 8.4196 5.394 9.7668 4.607 1.3471-.787.8981-3.596.8981-3.596z" fill="#107393"/><path d="m78.7667 267.324c-1.4594-1.348-6.9602-3.483-4.9395-7.978s5.7254-10.788 7.9706-11.125c2.2452-.45 5.9499-2.36 5.9499-2.36l-.1123-.899-4.715 1.124-5.3886 3.82-3.8169 7.979-1.3471 4.27 3.0311 4.383z" fill="#fff9e6"/><path d="m109.414 257.211s-3.255-1.911-4.715-6.069c-1.347-4.157-4.154-15.62-4.49-15.62-.3371 0-4.7153-.674-7.0728 7.08s1.6839 21.464 7.8588 21.239c6.174-.113 9.879-1.798 10.215-3.371.337-1.574-1.796-3.259-1.796-3.259z" fill="#107393"/><path d="m107.618 259.683c-2.021 0-7.522 2.247-9.2055-2.472-1.5717-4.72-3.2556-11.8-1.9085-13.598 1.3472-1.798 2.6943-5.843 2.6943-5.843l-.7858-.562-2.582 4.045-1.3472 6.406 2.6943 8.428 1.9085 4.045 5.1639 1.124z" fill="#fff9e6"/><path d="m126.59 237.32s-3.704 1.012-7.634-.899c-3.929-1.91-14.145-7.754-14.369-7.529-.225.225-3.817 2.922.224 10.002 3.93 7.079 16.615 13.597 20.769 8.99 4.154-4.608 5.501-8.429 4.715-9.665-.786-1.348-3.705-.899-3.705-.899z" fill="#107393"/><path d="m127.152 240.354c-1.46 1.461-3.593 6.968-8.083 4.945-4.491-2.023-10.665-5.844-11.114-8.091-.337-2.248-2.358-5.956-2.358-5.956l-.898.113 1.123 4.719 3.704 5.394 7.971 3.933 4.266 1.349 4.378-2.922z" fill="#fff9e6"/><path d="m103.9 103.647c0 32.718-26.3494 59.252-58.8396 59.252-32.4903 0-58.7281-26.534-58.7281-59.252 0-32.717 26.3495-59.2508 58.8397-59.2508 32.4903 0 58.728 26.5338 58.728 59.2508z" fill="#cde9e4"/><path d="m93.405 102.636c0 26.758-21.6602 48.57-48.2329 48.57-26.5728 0-48.34465-21.812-48.34465-48.57 0-26.8715 21.66015-48.5707 48.23295-48.5707s48.3446 21.6992 48.3446 48.5707z" fill="#fff9e6"/><path d="m-10.3182 56.5388s32.6019-12.8172 47.4514 0c14.8495 12.8171 34.165 54.4162 34.165 54.4162s18.869-11.2426 31.1508-2.81l-18.6459 48.233-17.0825-23.274s-32.8252 2.924-57.94655-12.367c-25.00965-15.291-19.09225-64.1982-19.09225-64.1982z" fill="#107393"/><g fill="#d9e0a2"><path d="m.623535 103.647 52.698965-35.3029 2.7913 1.2367-53.92716 37.5522z"/><path d="m-4.0658 116.914 52.5873-35.303 2.7913 1.2367-53.92714 37.6643z"/><path d="m15.0264 116.914 52.699-35.303 2.6796 1.2367-53.9271 37.6643z"/><path d="m31.2158 135.803 17.0825-29.57 1.5631.113-17.0825 31.143z"/><path d="m25.4099 76.2142 10.0485-14.8409 1.5631 8.5448-10.2718 13.6041z"/><path d="m57.7885 106.346 10.0485-14.8411 1.6748 8.5451-10.3835 13.604z"/></g><path d="m201.68 146.873c-13.784 20.183-41.477 25.308-61.791 11.435-20.313-13.873-25.616-41.532-11.832-61.7152 13.784-20.1835 41.477-25.3087 61.79-11.4358 20.314 13.873 25.693 41.421 11.833 61.716z" fill="#cde9e4"/><path d="m193.487 141.277c-10.738 15.723-32.138 19.587-47.85 8.856-15.824-10.807-19.825-32.18-9.163-47.792 10.738-15.7229 32.138-19.586 47.85-8.8555 15.788 10.6185 19.901 32.0685 9.163 47.7915z" fill="#fff8e7"/><path d="m130.962 175.69s23.503-29.414 23.629-37.199-10.11-19.797 2.511-32.078c12.651-12.1244 18.037-25.4106 24.391-19.7142 6.261 5.6329 24.584 6.2035 17.675 22.5202-7.003 16.254-15.556 27.377-25.828 31.219-10.273 3.842-7.405-3.157-13.832 3.854-6.584 7.039-26.949 34.66-26.949 34.66z" fill="#2c757a"/><path d="m127.246 171.931s23.38-29.634 23.443-37.327c.126-7.785-10.266-19.768 2.355-32.048 12.621-12.281 17.85-25.5383 24.267-19.9344 6.261 5.6328 24.648 6.1109 17.738 22.4284-6.909 16.317-15.369 27.504-25.641 31.345-10.273 3.842-7.405-3.157-13.896 3.947-6.49 7.103-26.762 34.787-26.762 34.787z" fill="#d9e0a2"/><path d="m130.051 172.624s18.286-32.976 17.068-40.593c-1.154-7.71-13.31-17.911-2.921-32.1234 10.389-14.2122 13.533-28.2154 20.645-23.6295 7.176 4.4933 25.399 2.01 21.261 19.2696-4.138 17.2593-10.672 29.6263-20.146 35.0993-9.474 5.472-7.728-1.885-13.07 6.138-5.186 7.994-20.738 38.766-20.738 38.766z" fill="#2c757a"/><g fill="#d9e0a2"><path d="m170.492 84.2072-20.319 48.5528 2.844-4.165z"/><path d="m160.851 87.1233 4.801 8.5712 10.805-4.021-11.377 5.2588z"/><path d="m154.91 95.8229 6.334 11.9261 11.207-3.611-12.162 5.809z"/><path d="m150.709 105.575 6.177 11.955 11.364-3.64-12.162 5.809z"/></g><g clip-path="url(#a)"><path d="m163.506 34.366c0 18.9917-15.374 34.366-34.366 34.366-18.909-.0823-34.2836-15.4565-34.2836-34.366 0-18.9917 15.3746-34.366 34.3656-34.366 18.91 0 34.284 15.3743 34.284 34.366z" fill="#cde9e4"/><path d="m158.573 34.366c0 16.1964-13.154 29.3508-29.351 29.3508-16.196 0-29.3504-13.1544-29.3504-29.3508s13.1544-29.35086 29.3504-29.35086c16.197 0 29.351 13.15446 29.351 29.35086z" fill="#fff8e7"/><path d="m135.635 13.7299-30.337 19.2384 22.445 26.2267 30.83-19.3206z" fill="#107393"/><g fill="#d9e0a2"><path d="m143.939 18.0051-34.202 24.9935 1.891 2.302 33.215-26.3911z"/><path d="m150.845 26.72-34.202 24.9934 1.809 2.302 33.297-26.3088z"/><path d="m123.056 19.8139-2.22 1.151 20.637 31.1596 1.808-.9866z"/></g></g><path d="m38.9501 201.016c0 17.933-14.5421 32.475-32.47507 32.475-17.93303 0-32.47503-14.542-32.47503-32.475s14.542-32.475 32.47503-32.475c17.93297 0 32.47507 14.542 32.47507 32.475z" fill="#cde9e4"/><path d="m34.0172 200.661c0 15.399-12.4981 28.009-28.00903 28.009-15.39936-.112-27.89737-12.61-27.89737-28.009 0-15.511 12.49801-28.009 28.00897-28.009 15.39933 0 27.89743 12.498 27.89743 28.009z" fill="#fff9e6"/><path d="m16.6092 198.541-11.15898 10.601c-.66954.669-.66954 1.674-.11159 2.343l7.69967 8.704c.6695.67 1.7854.781 2.455.112l11.3821-11.271c.6696-.669.6696-1.674 0-2.343l-7.9228-8.035c-.6696-.669-1.6739-.781-2.3434-.111z" fill="#2c757a"/><path d="m9.02105 195.305-11.15896 10.601c-.66954.669-.66954 1.674-.11159 2.343l7.69968 8.704c.66954.67 1.78543.781 2.45497.112l11.38215-11.271c.6695-.669.6695-1.674 0-2.343l-7.9229-8.035c-.6695-.669-1.67382-.669-2.34335-.111z" fill="#d9e0a2"/><path d="m3.55321 192.18-11.15896 10.601c-.66954.67-.66954 1.674-.11159 2.344l7.6996846 8.704c.6695374.669 1.7854354.781 2.4549654.111l11.38219-11.382c.6695-.669.6695-1.674 0-2.343l-7.92291-8.035c-.66953-.558-1.67384-.558-2.34338 0z" fill="#2c757a"/><path d="m-3.92335 188.833-11.15895 10.601c-.6695.669-.6695 1.673-.1116 2.343l7.69968 8.704c.66954.67 1.78544.781 2.45497.112l11.38214-11.271c.66954-.67.66954-1.674 0-2.343l-7.92286-8.035c-.66954-.669-1.67384-.669-2.34338-.111z" fill="#d9e0a2"/><path d="m-3.92335 179.347-11.15895 10.602c-.6695.557-.6695 1.562-.1116 2.231l7.69968 8.704c.66954.67 1.78544.781 2.45497.112l11.38214-11.271c.66954-.669.66954-1.674 0-2.343l-7.92286-8.035c-.66954-.669-1.67384-.669-2.34338 0z" fill="#2c757a"/></svg>