<svg xmlns="http://www.w3.org/2000/svg" width="100" height="100" viewBox="0 0 100 100" preserveAspectRatio="xMidYMid"><g><rect x="47" y="24" rx="3" ry="6" width="6" height="12" fill="#fff"><animate attributeName="opacity" values="1;0" keyTimes="0;1" dur="0.6666666666666666s" begin="-0.6111111111111112s" repeatCount="indefinite"/></rect></g><g><rect x="47" y="24" rx="3" ry="6" width="6" height="12" fill="#fff" transform="rotate(30 50 50)"><animate attributeName="opacity" values="1;0" keyTimes="0;1" dur="0.6666666666666666s" begin="-0.5555555555555556s" repeatCount="indefinite"/></rect></g><g><rect x="47" y="24" rx="3" ry="6" width="6" height="12" fill="#fff" transform="rotate(60 50 50)"><animate attributeName="opacity" values="1;0" keyTimes="0;1" dur="0.6666666666666666s" begin="-0.5s" repeatCount="indefinite"/></rect></g><g><rect x="47" y="24" rx="3" ry="6" width="6" height="12" fill="#fff" transform="rotate(90 50 50)"><animate attributeName="opacity" values="1;0" keyTimes="0;1" dur="0.6666666666666666s" begin="-0.4444444444444444s" repeatCount="indefinite"/></rect></g><g><rect x="47" y="24" rx="3" ry="6" width="6" height="12" fill="#fff" transform="rotate(120 50 50)"><animate attributeName="opacity" values="1;0" keyTimes="0;1" dur="0.6666666666666666s" begin="-0.3888888888888889s" repeatCount="indefinite"/></rect></g><g><rect x="47" y="24" rx="3" ry="6" width="6" height="12" fill="#fff" transform="rotate(150 50 50)"><animate attributeName="opacity" values="1;0" keyTimes="0;1" dur="0.6666666666666666s" begin="-0.3333333333333333s" repeatCount="indefinite"/></rect></g><g><rect x="47" y="24" rx="3" ry="6" width="6" height="12" fill="#fff" transform="rotate(180 50 50)"><animate attributeName="opacity" values="1;0" keyTimes="0;1" dur="0.6666666666666666s" begin="-0.2777777777777778s" repeatCount="indefinite"/></rect></g><g><rect x="47" y="24" rx="3" ry="6" width="6" height="12" fill="#fff" transform="rotate(210 50 50)"><animate attributeName="opacity" values="1;0" keyTimes="0;1" dur="0.6666666666666666s" begin="-0.2222222222222222s" repeatCount="indefinite"/></rect></g><g><rect x="47" y="24" rx="3" ry="6" width="6" height="12" fill="#fff" transform="rotate(240 50 50)"><animate attributeName="opacity" values="1;0" keyTimes="0;1" dur="0.6666666666666666s" begin="-0.16666666666666666s" repeatCount="indefinite"/></rect></g><g><rect x="47" y="24" rx="3" ry="6" width="6" height="12" fill="#fff" transform="rotate(270 50 50)"><animate attributeName="opacity" values="1;0" keyTimes="0;1" dur="0.6666666666666666s" begin="-0.1111111111111111s" repeatCount="indefinite"/></rect></g><g><rect x="47" y="24" rx="3" ry="6" width="6" height="12" fill="#fff" transform="rotate(300 50 50)"><animate attributeName="opacity" values="1;0" keyTimes="0;1" dur="0.6666666666666666s" begin="-0.05555555555555555s" repeatCount="indefinite"/></rect></g><g><rect x="47" y="24" rx="3" ry="6" width="6" height="12" fill="#fff" transform="rotate(330 50 50)"><animate attributeName="opacity" values="1;0" keyTimes="0;1" dur="0.6666666666666666s" begin="0s" repeatCount="indefinite"/></rect></g></svg>