<svg fill="none" height="16" viewBox="0 0 12 16" width="12" xmlns="http://www.w3.org/2000/svg"><path d="m5.84945 0c-3.22541 0-5.84945 2.67119-5.84945 5.95454 0 1.83657.928877 4.06576 2.76091 6.62556 1.34069 1.8734 2.66182 3.2094 2.71741 3.2654.10219.1029.23663.1545.37123.1545.13068 0 .26146-.0487.36284-.1463.05572-.0537 1.38019-1.3357 2.72341-3.1832 1.8335-2.5219 2.7632-4.78145 2.7632-6.71599-.0001-3.28332-2.6242-5.95451-5.84955-5.95451zm0 8.5252c-1.57688 0-2.85972-1.28287-2.85972-2.85972s1.28287-2.85972 2.85972-2.85972 2.85973 1.28287 2.85973 2.85972-1.28291 2.85972-2.85973 2.85972z" fill="#333"/></svg>