<svg fill="none" height="110" viewBox="0 0 105 110" width="105" xmlns="http://www.w3.org/2000/svg"><path d="m83.4723 73.5284c-11.669 17.0866-35.1125 21.4254-52.3092 9.6811s-21.68605-35.1594-10.017-52.246c11.6691-17.0866 35.1125-21.42533 52.3093-9.681 17.1967 11.7442 21.7505 35.0649 10.0169 52.2459z" fill="#cde9e4"/><path d="m76.5365 68.7919c-9.0902 13.3105-27.2064 16.5808-40.5078 7.4969-13.3963-9.1489-16.7828-27.2427-7.757-40.4588 9.0902-13.3105 27.2064-16.5809 40.5078-7.4969 13.3658 8.9896 16.8473 27.1482 7.757 40.4588z" fill="#fff8e7"/><path d="m23.6056 97.924s19.8963-24.9005 20.0032-31.4911c.107-6.5906-8.5585-16.7596 2.1261-27.1559 10.7099-10.2641 15.2693-21.5117 20.6483-16.6893 5.3001 4.7686 20.8117 5.2517 14.9625 19.0651-5.928 13.7597-13.1684 23.1763-21.8648 26.4285-8.6964 3.2521-6.2688-2.6728-11.7097 3.2623-5.5732 5.9595-22.8138 29.3414-22.8138 29.3414z" fill="#2c757a"/><path d="m20.4597 94.7416s19.7921-25.0866 19.8456-31.5988c.107-6.5906-8.6909-16.7351 1.9937-27.1314s15.1116-21.6194 20.5441-16.8753c5.3001 4.7685 20.8652 5.1732 15.016 18.9867-5.8491 13.8135-13.0107 23.284-21.7071 26.5362-8.6964 3.2521-6.2688-2.6728-11.7632 3.3406s-22.6561 29.4496-22.6561 29.4496z" fill="#d9e0a2"/><path d="m22.8338 95.329s15.4804-27.9163 14.4497-34.3647c-.9773-6.5269-11.2677-15.1631-2.4728-27.1946s11.4561-23.88603 17.4772-20.0038c6.0745 3.8039 21.5017 1.7016 17.9984 16.313-3.5033 14.6113-9.0342 25.0805-17.0547 29.7134s-6.542-1.5956-11.0648 5.1963c-4.3904 6.7673-17.556 32.8178-17.556 32.8178z" fill="#2c757a"/><g fill="#d9e0a2"><path d="m57.0701 20.4783-17.2011 41.1025 2.4078-3.5257z"/><path d="m48.9086 22.9471 4.0638 7.2561 9.147-3.4041-9.6314 4.4519z"/><path d="m43.879 30.3117 5.3621 10.0959 9.4878-3.0564-10.296 4.9171z"/><path d="m40.3221 38.5676 5.2298 10.1203 9.6201-3.0809-10.296 4.9172z"/></g></svg>