<svg fill="none" height="85" viewBox="0 0 71 85" width="71" xmlns="http://www.w3.org/2000/svg"><path d="m58 52.5782c-4.5985 12.8206-18.7455 19.4983-31.5661 14.8998-12.8207-4.5984-19.49832-18.7454-14.8999-31.5661 4.5985-12.8206 18.7455-19.4983 31.5662-14.8998 12.8206 4.5985 19.5237 18.6746 14.8998 31.5661z" fill="#f1ddbf"/><path d="m52.8293 50.7236c-3.5822 9.9874-14.528 15.0951-24.4445 11.5383-9.9873-3.5822-15.0951-14.528-11.5383-24.4445 3.5823-9.9873 14.528-15.0951 24.4445-11.5383 9.942 3.486 15.1206 14.4572 11.5383 24.4445z" fill="#ddb9ac"/><path d="m26.8977 76.4382s10.2818-23.0937 9.0637-28.1674-9.8404-11.1242-3.7321-21.2448c6.1537-10.0244 7.417-19.56435 12.4754-16.9506 4.9875 2.5884 16.9272-.16425 15.1851 11.6023-1.8129 11.7412-5.4845 20.4174-11.4836 24.6612-5.999 4.2439-5.3139-.7867-8.298 4.8583-3.0803 5.6905-11.6337 27.0857-11.6337 27.0857z" fill="#c82027"/><path d="m23.8682 74.6321s10.1655-23.2153 8.922-28.2181c-1.2181-5.0737-9.9367-11.0789-3.8283-21.1995 6.1083-10.1205 7.2753-19.61511 12.3591-17.07218 4.9875 2.58838 16.9526-.2351 15.2105 11.53148-1.7421 11.7666-5.3428 20.4682-11.3419 24.712-5.9991 4.2439-5.314-.7867-8.3234 4.9291-3.0095 5.7159-11.4921 27.1365-11.4921 27.1365z" fill="#f8cfbf"/><path d="m25.7965 74.6043s6.3152-24.5164 4.2564-29.2521c-2.0334-4.8065-11.5943-9.355-7.2514-20.3486 4.3429-10.9937 4.0371-20.61679 9.4003-18.85301 5.3887 1.69294 16.754-3.02449 16.9605 8.88141.2066 11.9059-1.9521 21.0448-7.1628 26.211s-5.3101.094-7.4241 6.211c-2.0179 6.0715-6.9334 28.6916-6.9334 28.6916z" fill="#c82027"/><g fill="#f8cfbf"><path d="m37.1772 10.3335-5.0284 34.971 1.1432-3.1875z"/><path d="m31.4319 13.8691 4.5341 4.7441 6.3132-4.4509-6.4764 5.3517z"/><path d="m29.044 20.5272 6.0855 6.6596 6.642-4.253-6.8922 5.8421z"/><path d="m27.9561 27.572 5.9893 6.7051 6.7382-4.2985-6.8922 5.8421z"/></g></svg>