<svg fill="none" height="201" viewBox="0 0 320 201" width="320" xmlns="http://www.w3.org/2000/svg" xmlns:xlink="http://www.w3.org/1999/xlink"><clipPath id="a"><path d="m82 34h139v159.901h-139z"/></clipPath><path d="m0 0h320v201h-320z" fill="#fff"/><circle cx="184.5" cy="92.5" fill="#fff3e0" r="81.5"/><g clip-path="url(#a)"><path d="m82.3573 34s-2.2483 97.913 4.5084 159.901h134.1343s-22.542-116.9222-21.424-159.901z" fill="#f7c98b"/><path d="m97.7737 61.348v30.6073h58.7523l-2.391-35.8176z" fill="#c3302f"/><path d="m164.639 120.041c13.455 0 24.362-9.816 24.362-21.9237 0-12.1081-10.907-21.9236-24.362-21.9236s-24.362 9.8155-24.362 21.9236c0 12.1077 10.907 21.9237 24.362 21.9237z" fill="#c3302f"/><path d="m169.385 82.8551-17.843 28.5499s-11.004-10.314-3.486-21.9716c7.518-11.6577 21.329-6.5783 21.329-6.5783z" fill="#f7c98b"/><path d="m174.369 84.4373-17.843 29.5127s12.859 7.899 22.602-5.008c9.742-12.9065-4.759-24.5047-4.759-24.5047z" fill="#f7c98b"/><g fill="#c3302f"><path d="m156.526 85.948v5.9478l-7.316-.2736c.699-1.4461 1.723-2.7109 2.992-3.6953 1.27-.9844 2.749-1.6617 4.324-1.9789z"/><path d="m99.6531 107.087v6.863l33.9139-3.426v-3.437z"/><path d="m99.6531 123.086v4.068h71.1709z"/><path d="m99.6531 135.981v6.209l100.0779-3.104v-8.113z"/><path d="m96.7864 150.077v6.448l108.4286-3.224v-6.091z"/><path d="m97.7737 162.02v5.008l107.4413-2.498v-4.425z"/><path d="m158.881 170.371v14.81h54.696l-4.782-18.153z"/></g></g></svg>