<svg fill="none" height="17" viewBox="0 0 15 17" width="15" xmlns="http://www.w3.org/2000/svg"><path d="m7.86133 12.8516c.34505 0 .67708-.0424.99609-.127.17578-.0456.40039-.1269.67383-.2441l-1.45508-1.3867 1.55274-1.62114 1.45509 1.38674c.2278-.4688.3874-.87893.4785-1.23049.1432-.52735.2148-1.14258.2148-1.84571 0-1.61458-.332-2.86132-.9961-3.74023-.6575-.88542-1.62104-1.32813-2.89058-1.32813-1.1914 0-2.14192.42318-2.85156 1.26954-.70963.84635-1.06445 2.11263-1.06445 3.79882 0 1.97266.50781 3.3854 1.52344 4.2383.65755.5534 1.44531.8301 2.36328.8301zm6.92387-5.28324c0 1.28255-.1563 2.35677-.4688 3.22264-.2539.8268-.6282 1.5137-1.123 2.0606l1.6601 1.5527-1.5723 1.6406-1.7382-1.6406c-.5274.319-.9831.5436-1.3672.6738-.64455.2149-1.41603.3223-2.31447.3223-1.875 0-3.42448-.5599-4.64844-1.6797-1.48437-1.3477-2.226562-3.3268-2.226562-5.9375 0-2.63021.761722-4.61914 2.285152-5.96679 1.24349-1.100264 2.78972-1.650394 4.63868-1.650394 1.86198 0 3.42444.582682 4.68754 1.748044 1.4583 1.34766 2.1875 3.23242 2.1875 5.6543z" fill="#697f01"/></svg>