<svg fill="none" height="143" viewBox="0 0 93 143" width="93" xmlns="http://www.w3.org/2000/svg"><path d="m62.7135 86.2241-49.4877.0279 42.2558 52.587z" fill="#7d6867"/><path d="m2.31763 97.6165 9.34467-97.6165 66.8368 1.92664-12.2207 98.56636z" fill="#c3302f"/><path d="m17.861 7.48315h51.5818l-7.5483 77.32625h-52.53122z" fill="#f7c98b"/><g fill="#7d6867"><path d="m11.1968 40.3385c3.6805 0 6.6642-3.6003 6.6642-8.0416s-2.9837-8.0417-6.6642-8.0417c-3.68045 0-6.66409 3.6004-6.66409 8.0417s2.98364 8.0416 6.66409 8.0416z"/><path d="m6.66413 61.0289c3.68047 0 6.66417-3.6003 6.66417-8.0416s-2.9837-8.0416-6.66417-8.0416c-3.6805 0-6.66413 3.6003-6.66413 8.0416s2.98363 8.0416 6.66413 8.0416z"/><path d="m6.66413 80.0906c3.68047 0 6.66417-3.6004 6.66417-8.0416 0-4.4413-2.9837-8.0417-6.66417-8.0417-3.6805 0-6.66413 3.6004-6.66413 8.0417 0 4.4412 2.98363 8.0416 6.66413 8.0416z"/><path d="m57.2593 88.1323 8.4977-21.1186-7.2039-27.2336 8.4977-2.8853 20.0855 28.1271-7.083 51.9451 12.9466 25.698h-52.5963l3.211-41.847z"/></g><path d="m21.3884 90.3195v2.9597l22.2727.6981v-3.6578z" fill="#f7c98b"/></svg>