<svg fill="none" height="143" viewBox="0 0 93 143" width="93" xmlns="http://www.w3.org/2000/svg"><path d="m62.7136 86.2242-49.4877.0279 42.2558 52.5869z" fill="#ffe4bf"/><path d="m2.31757 97.6165 9.34463-97.6165 66.8368 1.92664-12.2207 98.56636z" fill="#107393"/><path d="m17.861 7.48322h51.5818l-7.5483 77.32628h-52.53122z" fill="#d9e0a2"/><g fill="#ffe4bf"><path d="m11.1968 40.3385c3.6805 0 6.6642-3.6004 6.6642-8.0417 0-4.4412-2.9837-8.0416-6.6642-8.0416-3.68045 0-6.66409 3.6004-6.66409 8.0416 0 4.4413 2.98364 8.0417 6.66409 8.0417z"/><path d="m6.66413 61.0289c3.68047 0 6.66417-3.6003 6.66417-8.0416s-2.9837-8.0416-6.66417-8.0416c-3.6805 0-6.66413 3.6003-6.66413 8.0416s2.98363 8.0416 6.66413 8.0416z"/><path d="m6.66413 80.0906c3.68047 0 6.66417-3.6004 6.66417-8.0416 0-4.4413-2.9837-8.0417-6.66417-8.0417-3.6805 0-6.66413 3.6004-6.66413 8.0417 0 4.4412 2.98363 8.0416 6.66413 8.0416z"/><path d="m57.2594 88.1322 8.4977-21.1186-7.204-27.2336 8.4977-2.8853 20.0855 28.1271-7.083 51.9452 12.9467 25.698h-52.5964l3.2111-41.847z"/></g><path d="m21.3885 90.3195v2.9597l22.2727.6981v-3.6578z" fill="#d9e0a2"/></svg>