<svg fill="none" height="63" viewBox="0 0 54 63" width="54" xmlns="http://www.w3.org/2000/svg"><path d="m35.688 61.6368v-6.3057h-18.6306v6.3057z" fill="#cde9e4"/><path d="m36.8025 62.7707h-20.9236v-8.5987h20.9236zm-18.6306-2.293h16.3376v-4.0127h-16.3376z" fill="#2b4754"/><path d="m29.6368 1.14648h-6.3057v56.57962h6.3057z" fill="#cde9e4"/><path d="m30.7833 58.8726h-8.5987v-58.8726h8.5987zm-6.3057-2.293h4.0127v-54.28661h-4.0127z" fill="#2b4754"/><path d="m52.8535 5.21655h-51.70702v29.46495h51.70702z" fill="#cde9e4"/><g fill="#2b4754"><path d="m54 35.828h-54v-31.75793h54zm-51.70701-2.293h49.41401v-27.17194h-49.41401z"/><path d="m12.2103 15.2484v1.7197c-.6306 1.0319-1.3758 2.0637-2.23571 3.0956h2.40761v1.4331c-.2866 1.4904-.6305 2.6943-.9745 3.6688.172.1146.2866.2293.4586.4013.6879.6305 1.3185 1.0318 1.8917 1.2611.5733.2293 1.4905.344 2.5797.4013 1.1464 0 2.4076.0573 3.898.0573 1.4905 0 3.4395-.0573 5.8472-.172l-.5159 2.0637h-5.102c-1.4331 0-2.8662-.0573-4.242-.0573-1.4331-.0573-2.5223-.172-3.2102-.4586-.8599-.3439-1.6624-.8599-2.3503-1.5478-.172-.1719-.2866-.2293-.4586-.2293-.40128 0-1.03185.9172-1.89173 2.7516l-1.54777-1.4904c.9172-1.8344 1.8344-2.9236 2.7516-3.2675.40127-.9172.6879-1.8918.8599-2.9236h-2.9236v-1.6051c.97452-1.0892 1.77707-2.0637 2.40765-3.0382h-2.7516v-1.9491h5.10195zm-.1147-2.0064-1.3758 1.3758c-.7452-.9172-1.77705-1.949-3.15285-3.0382l1.43312-1.3185c1.20383 1.0319 2.23563 2.0064 3.09553 2.9809zm4.8726-1.949c.0573-.4013.1147-.8026.172-1.1465l2.1783.2866-.1146.8599h5.1592v2.5223h1.2039v1.777h-12.7835v-1.777h3.7261l.172-.8599h-2.6943v-1.6624zm7.4523 4.9299v4.0128h-3.3822v.6305h4.0127v1.7771h-4.0127v1.1465h4.414v1.7771h-4.414v1.3758h-2.121v-1.3758h-5.3312l.4586-2.9236h-.6879v-1.7771h5.5605v-.6305h-4.93v-4.0128zm-8.4841 6.4204-.172 1.1465h3.0955v-1.1465zm6.363-4.8153h-6.2484v.8026h6.3058v-.8026zm-.1146-4.0127v-.8599h-3.3249c-.0573.2866-.1719.5732-.2293.8599z"/><path d="m31.4713 24.191v-6.8789h13.758v6.8789h-5.7325v.9172h8.0828v1.9491h-8.1401v2.3503h-2.1784v-2.3503h-8.2548v-1.9491h8.2548v-.9172zm-1.0892-10.8343v-1.8918h6.5351c-.172-.4012-.2866-.7452-.4586-1.0891l2.3503-.40131c.172.45861.3439.91721.4586 1.43311h6.9363v1.8344h-2.9236l-.5159 1.3758h4.4713v1.8344h-17.9426v-1.8344h4.6433l-.5733-1.3758h-2.9809zm12.6688 5.7324h-9.4586v.8599h9.4586zm-9.4586 3.3249h9.4586v-.8599h-9.4586zm6.9363-7.6815.516-1.3758h-5.4459l.5733 1.3758z"/></g></svg>