<svg fill="none" height="65" viewBox="0 0 56 65" width="56" xmlns="http://www.w3.org/2000/svg"><path d="m36.9963 63.8258v-6.5297h-19.2922v6.5297z" fill="#fa6b62"/><path d="m38.1505 65.0001h-21.6666v-8.9042h21.6666zm-19.2922-2.3745h16.9178v-4.1552h-16.9178z" fill="#470000"/><path d="m30.7304 1.18726h-6.5297v58.58904h6.5297z" fill="#fa6b62"/><path d="m31.9177 60.9635h-8.9042v-60.9635h8.9042zm-6.5297-2.3745h4.1552v-56.21457h-4.1552z" fill="#470000"/><path d="m54.7716 5.40173h-53.54333v30.51137h53.54333z" fill="#fa6b62"/><g fill="#470000"><path d="m55.9588 37.1004h-55.9177844v-32.8858h55.9177844zm-53.54336-2.3744h51.16896v-28.13697h-51.16896z"/><path d="m12.6848 15.7902v1.7808c-.653 1.0685-1.4247 2.137-2.3151 3.2055h2.4932v1.484c-.2968 1.5434-.653 2.79-1.0092 3.7991.1781.1187.2969.2374.4749.4155.7124.653 1.3653 1.0685 1.9589 1.3059.5936.2375 1.5434.3562 2.6713.4156 1.1872 0 2.4931.0593 4.0365.0593s3.5616-.0593 6.0548-.178l-.5343 2.1369h-5.2831c-1.484 0-2.968-.0593-4.3927-.0593-1.484-.0594-2.6118-.1781-3.3241-.4749-.8905-.3562-1.7215-.8904-2.4338-1.6027-.1781-.1781-.2968-.2375-.4749-.2375-.4156 0-1.06852.9498-1.95893 2.8493l-1.60274-1.5434c.94977-1.8995 1.89955-3.0274 2.84932-3.3835.41555-.9498.71235-1.9589.89045-3.0274h-3.02744v-1.6621c1.00913-1.1279 1.84018-2.137 2.49314-3.1461h-2.8493v-2.0183h5.2831zm-.1187-2.0776-1.4247 1.4246c-.7717-.9498-1.84016-2.0182-3.26482-3.1461l1.48402-1.3653c1.2466 1.0685 2.3151 2.0776 3.2055 3.0868zm5.0456-2.0183c.0594-.4155.1188-.8311.1781-1.1872l2.2557.2968-.1187.8904h5.3425v2.6119h1.2465v1.8401h-13.2374v-1.8401h3.8585l.178-.8904h-2.7899v-1.7215zm7.7169 5.105v4.1553h-3.5022v.6529h4.1552v1.8402h-4.1552v1.1872h4.5707v1.8402h-4.5707v1.4247h-2.1964v-1.4247h-5.5205l.4748-3.0274h-.7123v-1.8402h5.758v-.6529h-5.105v-4.1553zm-8.7854 6.6484-.178 1.1872h3.2054v-1.1872zm6.5891-4.9863h-6.4703v.8311h6.5296v-.8311zm-.1187-4.1552v-.8904h-3.443c-.0593.2968-.178.5936-.2374.8904z"/><path d="m32.6299 25.0503v-7.1233h14.2466v7.1233h-5.9361v.9498h8.3699v2.0183h-8.4293v2.4337h-2.2557v-2.4337h-8.5479v-2.0183h8.5479v-.9498zm-1.1278-11.2192v-1.9589h6.7671c-.1781-.4155-.2968-.7717-.4749-1.1278l2.4338-.4155c.1781.4748.3561.9497.4749 1.484h7.1826v1.8995h-3.0274l-.5342 1.4247h4.6301v1.8995h-18.5799v-1.8995h4.8082l-.5936-1.4247h-3.0867zm13.1187 5.9361h-9.7946v.8904h9.7946zm-9.7946 3.4429h9.7946v-.8904h-9.7946zm7.1827-7.9543.5342-1.4247h-5.6392l.5936 1.4247z"/></g></svg>