<svg fill="none" height="356" viewBox="0 0 356 356" width="356" xmlns="http://www.w3.org/2000/svg"><path d="m178.004 356.009c98.31 0 178.005-79.695 178.005-178.005 0-98.3087-79.695-178.004-178.005-178.004-98.3087 0-178.004 79.6953-178.004 178.004 0 98.31 79.6953 178.005 178.004 178.005z" fill="#f26b63"/><path d="m304.097 234.643c24.247 0 43.904-19.656 43.904-43.903s-19.657-43.904-43.904-43.904-43.903 19.657-43.903 43.904 19.656 43.903 43.903 43.903z" fill="#f8cfbf"/><path d="m189.911 234.643c33.21 0 60.131-26.921 60.131-60.131s-26.921-60.132-60.131-60.132-60.132 26.922-60.132 60.132 26.922 60.131 60.132 60.131z" fill="#fff3e1"/><path d="m103.286 251.965c15.986 0 28.945-12.959 28.945-28.946 0-15.986-12.959-28.945-28.945-28.945-15.9867 0-28.9462 12.959-28.9462 28.945 0 15.987 12.9595 28.946 28.9462 28.946z" fill="#fff3e1"/><path d="m103.286 245.465c12.396 0 22.445-10.049 22.445-22.446 0-12.396-10.049-22.445-22.445-22.445-12.3969 0-22.4462 10.049-22.4462 22.445 0 12.397 10.0493 22.446 22.4462 22.446z" fill="#ddb9ac"/><path d="m79.5697 300.366c12.2065 0 22.1013-9.895 22.1013-22.101 0-12.207-9.8948-22.102-22.1013-22.102-12.2064 0-22.1017 9.895-22.1017 22.102 0 12.206 9.8953 22.101 22.1017 22.101z" fill="#f8cfbf"/><path d="m304.097 227.455c20.278 0 36.716-16.438 36.716-36.715 0-20.278-16.438-36.716-36.716-36.716s-36.716 16.438-36.716 36.716c0 20.277 16.438 36.715 36.716 36.715z" fill="#fff3e1"/><path d="m189.911 231.68c31.388 0 56.833-25.445 56.833-56.833s-25.445-56.833-56.833-56.833-56.833 25.445-56.833 56.833 25.445 56.833 56.833 56.833z" fill="#ddb9ac"/><path d="m146.889 346.519c20.341 0 36.83-16.489 36.83-36.83s-16.489-36.831-36.83-36.831-36.83 16.49-36.83 36.831 16.489 36.83 36.83 36.83z" fill="#fff3e1"/><path d="m78.8553 160.833c25.6547 0 46.4527-20.798 46.4527-46.453 0-25.6546-20.798-46.452-46.4527-46.452-25.655 0-46.4525 20.7974-46.4525 46.452 0 25.655 20.7975 46.453 46.4525 46.453z" fill="#fff3e1"/><path d="m78.8553 151.705c21.0569 0 38.1267-17.07 38.1267-38.127 0-21.0571-17.0698-38.127-38.1267-38.127-21.0568 0-38.1268 17.0699-38.1268 38.127 0 21.057 17.07 38.127 38.1268 38.127z" fill="#ddb9ac"/><path d="m35.0223 77.4707s25.7442-10.0807 37.4918 0 26.9701 42.6423 26.9701 42.6423 14.8788-8.819 24.5628-2.17l-14.632 37.827-13.5291-18.185s-25.9735 2.319-45.7469-9.702-15.1167-50.4123-15.1167-50.4123z" fill="#c82127"/><g fill="#f8cfbf"><path d="m43.7361 114.38 41.6017-27.6929 2.1519.9701-42.5894 29.5018z"/><path d="m39.9524 124.84 41.6017-27.7018 2.1519.979-42.5806 29.4928z"/><path d="m55.0779 124.84 41.6105-27.7018 2.1431.979-42.5806 29.4928z"/><path d="m67.8662 139.648 13.5027-23.257 1.2435.097-13.5555 24.43z"/><path d="m63.2712 92.8872 7.9464-11.6241 1.2436 6.6763-8.1228 10.6893z"/><path d="m88.8831 116.515 7.9463-11.624 1.2436 6.676-8.1228 10.689z"/></g><path d="m267.258 130.926c20.341 0 36.83-16.49 36.83-36.8305 0-20.3409-16.489-36.8304-36.83-36.8304s-36.83 16.4895-36.83 36.8304c0 20.3405 16.489 36.8305 36.83 36.8305z" fill="#fff3e1"/><path d="m267.258 125.572c17.384 0 31.477-14.092 31.477-31.4765 0-17.3842-14.093-31.4769-31.477-31.4769s-31.477 14.0927-31.477 31.4769c0 17.3845 14.093 31.4765 31.477 31.4765z" fill="#ddb9ac"/><path d="m274.137 72.0026-32.526 20.6112 24.051 28.1522 33.073-20.7703z" fill="#c82127"/><path d="m283.089 76.5887-36.672 26.7763 1.967 2.46 35.693-28.2308z" fill="#f8cfbf"/><path d="m290.48 85.9374-36.672 26.7846 1.967 2.461 35.692-28.2401z" fill="#f8cfbf"/><path d="m260.67 78.5114-2.373 1.2788 22.164 33.3728 1.949-1.023z" fill="#f8cfbf"/><path d="m240.588 337.012c26.439 0 47.872-21.434 47.872-47.873s-21.433-47.872-47.872-47.872-47.873 21.433-47.873 47.872 21.434 47.873 47.873 47.873z" fill="#fff3e1"/><path d="m240.588 329.85c22.484 0 40.711-18.227 40.711-40.711s-18.227-40.711-40.711-40.711-40.711 18.227-40.711 40.711 18.227 40.711 40.711 40.711z" fill="#ddb9ac"/><path d="m274.014 287.755-64.189-16.308-2.672 23.381h66.861z" fill="#c82127"/><path d="m239.115 309.107-11.774 15.337h17.383v-18.283z" fill="#c82127"/><path d="m221.864 304.071-4.551 11.236h4.551l12.568-9.896z" fill="#f8cfbf"/><path d="m227.341 277.868 8.696 21.925h4.551l-8.829-24.068z" fill="#f8cfbf"/><path d="m240.588 271.447 7.214 30.489h4.277v-11.5z" fill="#c82127"/><path d="m257.698 263.695-31.821 21.387 5.344 4.013 16.043-6.42z" fill="#f8cfbf"/><path d="m211.166 287.763c2.143 10.425 1.87 10.425 4.013 9.085 2.143-1.341 8.819-10.161 8.819-10.161s4.286-5.08-3.739-3.739c-8.026 1.341-9.093 4.815-9.093 4.815z" fill="#c82127"/><path d="m252.08 262.354c2.143 6.685 19.791 12.833 16.845 5.883s-10.425-13.353-10.425-13.353z" fill="#c82127"/><path d="m232.288 258.879-10.424 6.686 3.281 2.936 19.579-1.869z" fill="#c82127"/><path d="m262.513 290.092-1.843 11.844 1.843 5.61 3.475-12.03z" fill="#c82127"/><path d="m220.523 271.447-9.357 7.223 4.683 23.266 14.834.794z" fill="#f8cfbf"/><path d="m269.26 277.594-12.409-6.147-10.513 43.86 18.309 2.901z" fill="#f8cfbf"/><path d="m244.724 257.01-1.473 25.709 8.829-.53-2.408-25.179z" fill="#c82127"/><path d="m233.964 301.936 40.05-3.113v5.248l-39.582 1.34z" fill="#c82127"/><path d="m221.864 297.465-8.555 7.946 5.689 5.751 5-1.473z" fill="#c82127"/><path d="m242.652 254.867-23.998 28.398 19.2-13.396 4.798-10.99z" fill="#f8cfbf"/><path d="m221.864 258.447 12.1 27.014-13.661 2.294-3.907-24.06z" fill="#c82127"/><path d="m332.187 182.564c-1.144 1.722-2.834 3.008-4.798 3.651-3.281 1.068-12.294 3.237-12.285 3.528s-.565 3.704 5.494 5.556c6.059 1.853 16.828-1.278 16.757-6.12-.07-4.842-1.428-7.761-2.584-8.07-1.155-.309-2.584 1.455-2.584 1.455z" fill="#c82127"/><path d="m334.136 183.966c0 1.623 1.764 5.927-1.958 7.188-3.721 1.262-9.242 2.514-10.671 1.438-1.436-.885-2.969-1.601-4.569-2.134l-.449.608 3.183 2.037 5.045 1.041 6.632-2.108 3.193-1.508.882-4.048z" fill="#fff3e1"/><path d="m320.757 170.058c-.398 2.029-1.467 3.864-3.034 5.212-2.646 2.232-10.116 7.691-10.01 7.938s.882 3.642 7.206 3.034c6.323-.609 15.055-7.62 13.105-12.048-1.949-4.427-4.295-6.632-5.468-6.473s-1.799 2.337-1.799 2.337z" fill="#c82127"/><path d="m323.103 170.64c.609 1.499 3.872 4.807.953 7.391-2.92 2.584-7.585 5.856-9.314 5.415-1.664-.27-3.354-.347-5.036-.229l-.185.732 3.722.67 5.062-.979 5.292-4.48 2.364-2.646-.724-4.075z" fill="#fff3e1"/><path d="m304.82 163.585c.814 1.9.963 4.019.424 6.014-.882 3.325-4.005 12.066-3.775 12.207.229.141 2.796 2.504 7.664-1.57 4.868-4.075 8.123-14.782 4.013-17.339-4.11-2.558-7.285-3.043-8.167-2.249-.882.793-.159 2.937-.159 2.937z" fill="#c82127"/><path d="m307.087 162.747c1.349.882 5.909 1.764 4.948 5.565-.962 3.801-2.955 9.11-4.631 9.701-1.527.712-2.965 1.6-4.286 2.646l.265.706 3.448-1.553 3.625-3.66 1.861-6.703.476-3.527-2.901-2.964z" fill="#fff3e1"/><path d="m286.097 168.982c1.781 1.048 3.16 2.663 3.915 4.586 1.253 3.211 3.934 12.083 4.207 12.065.274-.017 3.731.353 5.23-5.812 1.5-6.165-2.231-16.757-7.055-16.342-4.825.414-7.673 1.878-7.938 3.042-.264 1.165 1.641 2.461 1.641 2.461z" fill="#c82127"/><path d="m287.419 166.962c1.614-.079 5.812-2.072 7.294 1.535s3.025 9.084 2.037 10.583c-.8 1.485-1.427 3.056-1.869 4.684l.635.414 1.852-3.29.749-5.106-2.487-6.5-1.693-3.096-4.083-.652z" fill="#fff3e1"/><path d="m276.298 188.12c2.033-.384 4.136-.073 5.971.882 3.051 1.597 10.918 6.509 11.104 6.315.185-.194 3.042-2.187.123-7.814s-12.691-11.121-16.078-7.655-4.542 6.456-3.951 7.487c.591 1.032 2.831.785 2.831.785z" fill="#c82127"/><path d="m275.963 185.721c1.164-1.12 3.025-5.379 6.509-3.633 3.483 1.746 8.255 4.842 8.493 6.614.374 1.644.936 3.239 1.676 4.754l.749-.097-.767-3.704-2.796-4.33-6.173-3.264-3.317-1.217-3.527 2.205z" fill="#fff3e1"/><path d="m283.989 209.543c1.057-1.778 2.681-3.148 4.612-3.889 3.219-1.226 12.109-3.846 12.092-4.119-.018-.273.379-3.731-5.768-5.292s-16.757 2.126-16.396 6.95c.362 4.824 1.826 7.682 2.981 7.938 1.156.255 2.479-1.588 2.479-1.588z" fill="#c82127"/><path d="m281.969 208.202c-.062-1.613-2.029-5.829 1.596-7.276 3.625-1.446 9.102-2.963 10.584-1.975 1.479.813 3.048 1.452 4.674 1.905l.423-.626-3.289-1.879-5.089-.794-6.518 2.434-3.113 1.667-.679 4.093z" fill="#fff3e1"/><path d="m294.519 225.921c-.467-2.016-.247-4.13.626-6.006 1.473-3.114 6.051-11.175 5.856-11.36-.194-.185-2.319-2.945-7.814.212-5.494 3.157-10.583 13.141-6.994 16.369 3.59 3.228 6.642 4.277 7.656 3.651s.67-2.866.67-2.866z" fill="#c82127"/><path d="m292.138 226.353c-1.164-1.12-5.504-2.796-3.898-6.35 1.605-3.554 4.498-8.458 6.253-8.767 1.628-.44 3.199-1.067 4.683-1.869l-.124-.741-3.669.882-4.215 3.042-2.999 6.271-1.085 3.36 2.346 3.422z" fill="#fff3e1"/><path d="m316.206 218.38c-1.725-1.142-3.015-2.832-3.66-4.798-1.076-3.272-3.272-12.276-3.528-12.276-.255 0-3.704-.556-5.538 5.521-1.835 6.076 1.314 16.818 6.173 16.704 4.86-.115 7.762-1.455 8.061-2.602.3-1.147-1.508-2.549-1.508-2.549z" fill="#c82127"/><path d="m314.769 220.329c-1.614 0-5.918 1.764-7.197-1.94s-2.522-9.234-1.464-10.663c.883-1.439 1.596-2.975 2.126-4.577l-.6-.45-2.037 3.184-1.024 5.054 2.126 6.623 1.517 3.184 4.048.882z" fill="#fff3e1"/><path d="m329.718 202.743c-2.017.461-4.13.228-5.997-.661-3.105-1.491-11.131-6.13-11.316-5.927s-2.963 2.293.159 7.814 13.062 10.672 16.325 7.056 4.313-6.606 3.695-7.62c-.617-1.015-2.866-.662-2.866-.662z" fill="#c82127"/><path d="m330.132 205.124c-1.12 1.165-2.822 5.486-6.367 3.863-3.546-1.622-8.423-4.559-8.723-6.314-.43-1.632-1.046-3.209-1.834-4.701l-.75.132.882 3.669 2.946 4.233 6.253 3.043 3.351 1.103 3.431-2.32z" fill="#fff3e1"/><path d="m42.9776 225.277c14.0184 0 25.3825-11.364 25.3825-25.383 0-14.018-11.3641-25.382-25.3825-25.382-14.0185 0-25.3826 11.364-25.3826 25.382 0 14.019 11.3641 25.383 25.3826 25.383z" fill="#fff3e1"/><path d="m42.9776 223.019c12.7714 0 23.1248-10.353 23.1248-23.125 0-12.771-10.3534-23.124-23.1248-23.124-12.7715 0-23.1248 10.353-23.1248 23.124 0 12.772 10.3533 23.125 23.1248 23.125z" fill="#f8cfbf"/><path d="m40.2875 198.58c3.3463 0 6.059-2.487 6.059-5.556s-2.7127-5.556-6.059-5.556-6.059 2.487-6.059 5.556 2.7127 5.556 6.059 5.556z" fill="#c82127"/><path d="m55.6952 197.892c.5256 1.436.4906 3.018-.0982 4.429-.5887 1.411-1.6878 2.548-3.078 3.185s-2.9693.726-4.4223.25c-1.4531-.476-2.6732-1.483-3.417-2.819-1.2789-2.787.2204-5.371 3.2544-6.764 3.0339-1.394 6.4823-1.076 7.7611 1.719z" fill="#c82127"/><path d="m33.3026 201.588c1.0357-1.109 2.4486-1.79 3.9609-1.909 1.5123-.12 3.0147.33 4.2119 1.262 1.1971.932 2.0024 2.278 2.2575 3.773.2552 1.496-.0583 3.033-.8788 4.309-1.8873 2.416-4.8683 2.284-7.5054.22-2.637-2.064-3.9335-5.23-2.0461-7.655z" fill="#c82127"/><path d="m143.723 67.3723c14.018 0 25.383-11.3641 25.383-25.3825 0-14.0185-11.365-25.3826-25.383-25.3826s-25.383 11.3641-25.383 25.3826c0 14.0184 11.365 25.3825 25.383 25.3825z" fill="#fff3e1"/><path d="m143.723 65.1146c12.771 0 23.125-10.3534 23.125-23.1248 0-12.7715-10.354-23.1248-23.125-23.1248-12.772 0-23.125 10.3533-23.125 23.1248 0 12.7714 10.353 23.1248 23.125 23.1248z" fill="#f8cfbf"/><path d="m141.377 42.9448c2.804-1.826 3.72-5.3909 2.045-7.9624-1.674-2.5716-5.305-3.176-8.109-1.35-2.804 1.8259-3.72 5.3908-2.046 7.9623 1.675 2.5716 5.306 3.176 8.11 1.3501z" fill="#c82127"/><path d="m153.901 33.964c1.266.8784 2.132 2.2239 2.407 3.7405.274 1.5167-.065 3.0803-.943 4.347-.77 1.335-2.037 2.3109-3.525 2.7142-1.487.4032-3.074.2011-4.413-.5623-2.593-1.6404-2.751-4.6214-.961-7.4525 1.79-2.831 4.842-4.4274 7.435-2.7869z" fill="#c82127"/><path d="m137.152 49.2835c.268-1.4885 1.081-2.8238 2.28-3.7457s2.698-1.3643 4.206-1.241c1.507.1233 2.915.8036 3.948 1.9081s1.618 2.5541 1.64 4.0664c-.264 3.0604-2.831 4.5773-6.173 4.2863-3.343-.2911-6.156-2.2225-5.901-5.2741z" fill="#c82127"/><path d="m199.771 92.7549c14.018 0 25.383-11.3641 25.383-25.3826 0-14.0184-11.365-25.3826-25.383-25.3826s-25.383 11.3642-25.383 25.3826c0 14.0185 11.365 25.3826 25.383 25.3826z" fill="#fff3e1"/><path d="m199.771 90.4971c12.771 0 23.125-10.3533 23.125-23.1248 0-12.7714-10.354-23.1247-23.125-23.1247s-23.125 10.3533-23.125 23.1247c0 12.7715 10.354 23.1248 23.125 23.1248z" fill="#f8cfbf"/><path d="m206.696 64.215c2.242-2.0959 2.206-5.7764-.08-8.2206-2.285-2.4441-5.955-2.7264-8.197-.6304-2.241 2.096-2.205 5.7764.081 8.2206 2.285 2.4441 5.955 2.7264 8.196.6304z" fill="#c82127"/><path d="m209.534 74.375c-.704 1.3427-1.883 2.3743-3.308 2.8929-1.424.5186-2.991.4868-4.394-.0892-1.402-.5759-2.539-1.6545-3.188-3.0246-.648-1.3701-.763-2.9331-.32-4.3829 1.165-2.8399 4.075-3.5278 7.171-2.2401 3.095 1.2876 5.203 4.004 4.039 6.8439z" fill="#c82127"/><path d="m191.534 60.5372c1.52-.0006 2.985.5677 4.107 1.5932 1.122 1.0254 1.82 2.4337 1.956 3.9477.136 1.5141-.299 3.0242-1.221 4.2332-.921 1.2091-2.262 2.0295-3.758 2.2999-3.051.2734-4.992-2.0021-5.291-5.2918-.3-3.2896 1.155-6.4647 4.207-6.7822z" fill="#c82127"/><path d="m208.97 133.625c-12.348-.23-12.894 7.055-19.262 7.426-4.427.345-8.798 1.203-13.027 2.557v1.914c3.021-1.294 6.284-1.926 9.57-1.852 4.718.335 7.24.168 10.098-2.866 2.857-3.034 12.621-5.045 12.621-5.045z" fill="#c82127"/><path d="m199.171 130.935c-12.347-.23-12.894 7.055-19.261 7.426-4.427.345-8.798 1.203-13.027 2.557v1.896c3.021-1.294 6.284-1.925 9.569-1.852 4.71.336 7.241.168 10.099-2.866 2.857-3.034 12.62-5.045 12.62-5.045z" fill="#f8cfbf"/><path d="m188.403 130.935c-12.348-.23-12.903 7.055-19.271 7.426-4.427.345-8.798 1.203-13.027 2.557v1.896c3.021-1.294 6.284-1.925 9.57-1.852 4.718.336 7.24.168 10.107-2.866 2.866-3.034 12.621-5.045 12.621-5.045z" fill="#c82127"/><path d="m166.883 142.814-2.584 20.656-13.856-.829 3.378-20.576z" fill="#f26b63"/><path d="m217.348 139.931c-11.13-5.292-14.675 1.155-20.62-1.165-4.174-1.51-8.51-2.528-12.92-3.034l-.785 1.764s5.291 0 9.49 2.249c4.198 2.249 6.526 3.14 10.38 1.553 3.854-1.588 13.582.599 13.582.599z" fill="#c82127"/><path d="m217.348 134.656c-11.13-5.291-14.675 1.147-20.62-1.172-4.174-1.511-8.51-2.529-12.92-3.034l-.785 1.763s5.291 0 9.49 2.258c4.198 2.258 6.526 3.131 10.38 1.553 3.854-1.579 13.582.59 13.582.59z" fill="#c82127"/><path d="m178.198 133.801c-10.521 6.412-7.055 12.903-12.276 16.598-3.554 2.666-6.786 5.735-9.631 9.146l1.023 1.596s2.928-4.453 7.055-6.694c4.128-2.24 6.174-3.739 6.994-7.831.821-4.093 7.938-11.034 7.938-11.034z" fill="#c82127"/><path d="m173.63 133.175c-10.522 6.412-7.056 12.903-12.277 16.598-3.561 2.663-6.802 5.729-9.657 9.137l1.023 1.605s2.928-4.454 7.055-6.694c4.128-2.24 6.174-3.739 6.994-7.831.821-4.093 7.938-11.034 7.938-11.034z" fill="#c82127"/><path d="m223.151 163.47c4.418 0 8-3.582 8-7.999 0-4.418-3.582-8-8-8-4.417 0-7.999 3.582-7.999 8 0 4.417 3.582 7.999 7.999 7.999z" fill="#fff3e1"/><path d="m189.814 159.369c-1.196-2.738-1.254-5.839-.163-8.62 1.09-2.781 3.241-5.015 5.979-6.21s5.839-1.254 8.62-.163c2.781 1.09 5.015 3.241 6.21 5.979" fill="#fff3e1"/><path d="m224.483 191.692c-1.286 2.698-3.592 4.775-6.409 5.773-2.818.998-5.917.836-8.615-.45-2.698-1.287-4.775-3.592-5.773-6.41-.998-2.817-.836-5.916.451-8.614" fill="#fff3e1"/><path d="m151.722 170.746c4.418 0 8-3.581 8-7.999s-3.582-8-8-8-7.999 3.582-7.999 8 3.581 7.999 7.999 7.999z" fill="#fff3e1"/><path d="m151.722 197.055c4.418 0 8-3.582 8-8s-3.582-7.999-8-7.999-7.999 3.581-7.999 7.999 3.581 8 7.999 8z" fill="#fff3e1"/><path d="m232.588 182.511c4.418 0 8-3.581 8-7.999s-3.582-7.999-8-7.999c-4.417 0-7.999 3.581-7.999 7.999s3.582 7.999 7.999 7.999z" fill="#fff3e1"/><path d="m197.099 217.551c10.398-6.606 6.835-13.035 11.968-16.827 3.501-2.736 6.671-5.87 9.446-9.34l-1.041-1.579s-2.849 4.507-6.959 6.826c-4.11 2.32-6.129 3.854-6.844 7.938-.714 4.083-7.734 11.174-7.734 11.174z" fill="#c82127"/><path d="m206.756 214.385c10.398-6.606 6.835-13.035 11.968-16.828 3.5-2.73 6.67-5.858 9.446-9.322l-1.041-1.579c-1.807 2.748-4.183 5.076-6.967 6.827-4.11 2.319-6.121 3.854-6.835 7.937-.715 4.084-7.735 11.175-7.735 11.175z" fill="#c82127"/><path d="m215.743 208.441c10.398-6.615 6.835-13.036 11.959-16.828 3.501-2.736 6.673-5.867 9.455-9.331l-1.05-1.579c-1.803 2.75-4.176 5.081-6.958 6.835-4.119 2.32-6.13 3.854-6.844 7.938-.715 4.083-7.735 11.183-7.735 11.183z" fill="#c82127"/><path d="m186.639 216.96c12.197-1.764 11.597-9.066 17.833-10.407 4.329-1.059 8.52-2.619 12.488-4.648l-.308-1.869c-2.776 1.761-5.898 2.905-9.155 3.351-4.701.423-7.17.997-9.508 4.41-2.337 3.413-11.65 6.994-11.65 6.994z" fill="#f8cfbf"/><path d="m189.549 221.317c12.198-1.764 11.598-9.058 17.833-10.407 4.315-1.048 8.494-2.593 12.453-4.604l-.299-1.869s-4.41 2.936-9.155 3.351c-4.745.414-7.17.997-9.516 4.41s-11.651 6.994-11.651 6.994z" fill="#c82127"/><path d="m222.658 200.415c5.238-11.148-1.217-14.667 1.076-20.62 1.492-4.183 2.492-8.525 2.981-12.938l-1.764-.768c-.049 3.289-.803 6.528-2.214 9.499-2.231 4.163-3.104 6.535-1.508 10.389s-.538 13.582-.538 13.582z" fill="#f8cfbf"/><path d="m226.812 198.439c5.238-11.156-1.217-14.667 1.084-20.62 1.491-4.182 2.489-8.524 2.973-12.938l-1.764-.776s0 5.292-2.214 9.498c-2.214 4.207-3.104 6.545-1.508 10.39s-.485 13.564-.485 13.564z" fill="#c82127"/><path d="m164.299 196.146-9.358 5.151 17.313 15.619 9.878-8.714z" fill="#f26b63"/><path d="m208.97 161.141v18.46l7.911-2.355-2.311-14.499z" fill="#c82127"/><path d="m215.249 160.727-24.412 4.948 7.364 4.648h17.048z" fill="#fff3e1"/><path d="m176.152 160.383s-9.392.75-14.993 8.731c0 0-.767 9.702 8.37 13.23 0 0 11.606 1.931 15.169-7.506-.044.018-1.252-11.271-8.546-14.455z" fill="#f26b63"/><path d="m191.199 142.956s-9.393.749-14.994 8.731c0 0-.767 9.701 8.37 13.229 0 0 11.615 1.932 15.17-7.514-.044.018-1.262-11.263-8.546-14.446z" fill="#f26b63"/><path d="m183.023 194.567s11.73-13.89 20.02-21.863 21.44 17.365 21.44 17.365l-23.618 22.164s-16.599-10.169-17.842-17.666z" fill="#fff3e1"/><path d="m182.132 202.161c7.798 0 14.12-6.322 14.12-14.12s-6.322-14.12-14.12-14.12-14.12 6.322-14.12 14.12 6.322 14.12 14.12 14.12z" fill="#c82127"/><path d="m145.654 133.801s1.367-9.807-.82-13.035 11.783-13.053 16.263-13.274c4.481-.22 5.125 9.931 15.047 8.476" fill="#fff3e1"/><path d="m234.599 214.235s-1.358 9.807.82 13.035c2.179 3.228-11.774 13.053-16.263 13.274-4.489.22-5.124-9.931-15.046-8.467" fill="#fff3e1"/><path d="m139.146 304.185c6.941 0 12.568-4.797 12.568-10.715 0-5.919-5.627-10.716-12.568-10.716s-12.568 4.797-12.568 10.716c0 5.918 5.627 10.715 12.568 10.715z" fill="#c82127"/><path d="m139.146 294.81c1.052 0 1.905-.6 1.905-1.34 0-.741-.853-1.341-1.905-1.341s-1.905.6-1.905 1.341c0 .74.853 1.34 1.905 1.34z" fill="#f26b63"/><path d="m141.933 318.831c1.276-5.779-3.184-11.677-9.962-13.173-6.778-1.497-13.307 1.975-14.583 7.754s3.185 11.677 9.962 13.173c6.778 1.496 13.307-1.975 14.583-7.754z" fill="#c82127"/><path d="m131.521 316.532c.16-.723-.544-1.493-1.571-1.72-1.028-.227-1.99.176-2.15.899-.159.723.544 1.493 1.572 1.719 1.027.227 1.989-.175 2.149-.898z" fill="#f26b63"/><path d="m169.357 328.737c1.739-5.657-2.231-11.895-8.866-13.934s-13.422.895-15.161 6.552c-1.738 5.657 2.232 11.896 8.867 13.934 6.635 2.039 13.422-.894 15.16-6.552z" fill="#c82127"/><path d="m159.165 325.606c.217-.708-.422-1.532-1.427-1.841-1.006-.309-1.998.014-2.215.722-.218.707.421 1.532 1.427 1.841s1.997-.015 2.215-.722z" fill="#f26b63"/><path d="m166.866 312.276c6.064-1.701 9.788-7.327 8.319-12.565-1.47-5.239-7.577-8.107-13.641-6.406-6.064 1.702-9.788 7.327-8.319 12.566 1.47 5.238 7.577 8.106 13.641 6.405z" fill="#c82127"/><path d="m159.774 294.087-3.554-3.554.424-1.359 4.383 4.913z" fill="#c82127"/><path d="m162.597 285.417s-5.363 1.967-4.56 5.292c0 0 2.884 3.351 5.706-.882s2.814-5.847 2.814-5.847z" fill="#c82127"/><path d="m87.9219 276.633-8.8195 8.387c-.2456.236-.3908.557-.4056.897s.102.673.3262.929l6.0854 6.897c.118.135.2624.245.4244.322s.338.12.5173.127.3581-.023.5253-.089c.1672-.065.3193-.163.4469-.289l9.0135-8.943c.2451-.248.3826-.582.3826-.931 0-.348-.1375-.683-.3826-.93l-6.2883-6.342c-.2404-.241-.5651-.38-.9057-.386-.3406-.007-.6704.119-.9199.351z" fill="#c82127"/><path d="m81.898 274.084-8.8196 8.388c-.2455.235-.3907.557-.4055.897s.102.672.3262.928l6.0854 6.906c.1193.133.2645.241.4267.317s.3381.118.517.124c.179.005.3572-.025.5239-.09.1668-.065.3186-.164.4463-.289l9.0312-8.952c.245-.248.3825-.582.3825-.931 0-.348-.1375-.682-.3825-.93l-6.2884-6.332c-.2411-.247-.5695-.389-.9144-.396-.3448-.006-.6784.123-.9288.36z" fill="#fff3e1"/><path d="m77.6118 271.641-8.8195 8.388c-.2455.235-.3908.557-.4056.897-.0147.34.1021.672.3262.928l6.0855 6.897c.1172.135.2608.245.422.322.1613.077.3366.12.5152.127.1786.006.3566-.024.5231-.089s.3179-.163.4447-.289l9.0224-8.979c.245-.247.3825-.582.3825-.93s-.1375-.683-.3825-.931l-6.2795-6.341c-.2454-.239-.5746-.373-.9173-.373-.3426 0-.6718.134-.9172.373z" fill="#c82127"/><path d="m71.6675 268.995-8.8195 8.388c-.2456.236-.3908.557-.4056.897s.102.672.3262.928l6.0855 6.906c.1193.134.2644.242.4266.317.1622.076.3381.118.5171.124.1789.006.3571-.025.5239-.09.1667-.065.3185-.164.4462-.289l9.0312-8.952c.245-.248.3825-.582.3825-.93 0-.349-.1375-.683-.3825-.931l-6.2972-6.368c-.2454-.239-.5745-.373-.9172-.373s-.6718.134-.9172.373z" fill="#fff3e1"/><path d="m71.6675 261.419-8.8195 8.388c-.2456.235-.3908.557-.4056.897s.102.672.3262.928l6.0855 6.906c.1193.134.2644.241.4266.317s.3381.118.5171.124c.1789.006.3571-.025.5239-.09.1667-.065.3185-.164.4462-.289l9.0312-8.952c.245-.248.3825-.582.3825-.93 0-.349-.1375-.683-.3825-.931l-6.2883-6.332c-.2412-.247-.5696-.389-.9145-.395-.3448-.007-.6784.122-.9288.359z" fill="#c82127"/><path d="m107.342 261.719s2.214-29.58-1.137-34.678c-3.352-5.098-15.2669-8.387-12.4975-21.943 2.7693-13.556.4233-24.554 6.9855-23.68 6.561.873 18.644-6.915 21.307 6.799 2.664 13.715 2.055 24.695-2.883 31.751-4.939 7.055-6.174 1.226-7.25 8.687s-2.117 34.502-2.117 34.502z" fill="#c82127"/><path d="m103.312 260.917s2.064-29.59-1.314-34.67-15.3108-8.308-12.6032-21.881.2999-24.554 6.8616-23.716c6.5616.838 18.6176-7.002 21.3516 6.703 2.735 13.706 2.17 24.695-2.734 31.75-4.903 7.056-6.173 1.262-7.205 8.723s-1.94 34.511-1.94 34.511z" fill="#f8cfbf"/><path d="m105.402 260.07s-2.769-29.537-6.9232-33.99c-4.154-4.454-16.4572-5.715-15.9986-19.553s-3.6866-24.272 2.9281-24.51c6.6146-.238 17.2247-9.93 22.1457 3.14 4.921 13.071 6.174 23.98 2.461 31.75s-5.848 2.24-5.689 9.772 3.687 34.396 3.687 34.396z" fill="#c82127"/><path d="m92.4814 184.698 8.3076 40.579v-3.96z" fill="#f8cfbf"/><path d="m87.613 190.863 6.8352 3.449 5.2035-7.444-4.983 8.52z" fill="#f8cfbf"/><path d="m87.613 199.118 9.2782 5.01 5.6888-7.347-5.2831 9.137z" fill="#f8cfbf"/><path d="m89.1477 207.329 9.2781 5.01 5.6882-7.347-5.2825 9.137z" fill="#f8cfbf"/></svg>