<svg fill="none" height="201" viewBox="0 0 320 201" width="320" xmlns="http://www.w3.org/2000/svg"><path d="m157.5 189c45.011 0 81.5-36.489 81.5-81.5 0-45.0112-36.489-81.5-81.5-81.5s-81.5 36.4888-81.5 81.5c0 45.011 36.489 81.5 81.5 81.5z" fill="#fff9e6"/><g fill="#ffe4bf"><path d="m231.472 197.453 15.912-89.5-12.886-23.5317-3.026-18.9371 29.599-9.8527 2.912-37.6315h8.534v39.6133l7.483 24.6481-9.812 25.6916-.518 89.5z"/><path d="m143.776 174.318-17.918-93.3752 12.765-27.172-37.057-20.0777-12.4008 17.7156-9.1652.5905v26.5734l16.8419 3.5512 6.9321 92.1942z"/><path d="m144.884 193.506 17.506-76.234-4.199-19.9562 33.271-31.1681 16.681 9.8042-5.825 2.1032h-11.907l-10.856 19.2607 15.92 16.1052h6.843v5.259l-20.32 4.554 1.95 70.272z"/></g><path d="m195.475 79.8023v33.6187l65.944-3.85-3.066-37.8256z" fill="#107393"/><path d="m215.075 78.3138v-13.129h14.99l6.932 11.3332z" fill="#107393"/><path d="m226.036 107.727c9.271 0 16.786-6.099 16.786-13.6229 0-7.5234-7.515-13.6224-16.786-13.6224-9.27 0-16.785 6.099-16.785 13.6224 0 7.5239 7.515 13.6229 16.785 13.6229z" fill="#d9e0a2"/><path d="m226.036 105.623c6.362 0 11.519-5.157 11.519-11.5189 0-6.3618-5.157-11.5191-11.519-11.5191s-11.519 5.1573-11.519 11.5191c0 6.3619 5.157 11.5189 11.519 11.5189z" fill="#107393"/><path d="m226.036 102.331c4.544 0 8.227-3.6834 8.227-8.227 0-4.5435-3.683-8.2268-8.227-8.2268-4.543 0-8.227 3.6833-8.227 8.2268 0 4.5436 3.684 8.227 8.227 8.227z" fill="#d9e0a2"/><path d="m217.809 69.3672.923 6.4148h11.85l-1.545-7.8628z" fill="#d9e0a2"/><path d="m143.776 174.318-8.291 19.188h-52.6942l20.9832-19.188" fill="#ffe4bf"/></svg>