<svg xmlns="http://www.w3.org/2000/svg" width="320" height="201" fill="none" viewBox="0 0 320 201" xmlns:v="https://vecta.io/nano"><path fill="#fff" d="M0 0h320v201H0z"/><circle cx="157.5" cy="107.5" r="81.5" fill="#fff3e0"/><g clip-path="url(#A)"><g fill="#f7c98b"><path d="M231.472 197.453l15.912-89.5-12.886-23.532-3.026-18.937 29.599-9.853L263.983 18h8.534v39.613L280 82.261l-9.812 25.692-.518 89.5h-38.198zm-87.696-23.135l-17.918-93.375 12.765-27.172-37.057-20.078-12.401 17.716-9.165.59v26.573l16.842 3.551 6.932 92.194h40.002zm1.108 19.188l17.506-76.234-4.199-19.956 33.271-31.168 16.681 9.804-5.825 2.103h-11.907l-10.856 19.261 15.92 16.105h6.843v5.259l-20.32 4.554 1.95 70.272h-39.064z"/></g><g fill="#c3302f"><path d="M195.475 79.802v33.619l65.944-3.85-3.066-37.826-62.878 8.057z"/><path d="M215.075 78.314V65.185h14.99l6.932 11.333-21.922 1.796z"/></g><path d="M226.036 107.727c9.271 0 16.786-6.099 16.786-13.623s-7.515-13.622-16.786-13.622-16.785 6.099-16.785 13.622 7.515 13.623 16.785 13.623z" fill="#f7c98b"/><path d="M226.036 105.623a11.52 11.52 0 0 0 11.519-11.519 11.52 11.52 0 0 0-11.519-11.519 11.52 11.52 0 0 0-11.519 11.519 11.52 11.52 0 0 0 11.519 11.519z" fill="#c3302f"/><g fill="#f7c98b"><path d="M226.036 102.331a8.23 8.23 0 0 0 8.227-8.227 8.23 8.23 0 0 0-8.227-8.227 8.23 8.23 0 0 0-8.227 8.227 8.23 8.23 0 0 0 8.227 8.227zm-8.227-32.964l.923 6.415h11.85l-1.545-7.863-11.228 1.448zm-74.033 104.951l-8.291 19.188H82.791l20.983-19.188"/></g></g><defs><clipPath id="A"><path fill="#fff" transform="translate(80 18)" d="M0 0h200v179.453H0z"/></clipPath></defs></svg>