<svg fill="none" height="100" viewBox="0 0 334 100" width="334" xmlns="http://www.w3.org/2000/svg"><g fill="#c90d0d"><path d="m24.1896 13.8888c.2862 3.9376.7156 6.3001 1.7176 8.8774 1.9323-3.15 2.9342-5.2978 3.4352-7.5171 5.6537 1.9329 5.7253 2.0045 5.7253 2.5057 0 .4295-.501.5727-1.9323.6443-2.2901 3.7944-3.5068 5.6558-5.5106 8.0183 1.2882 2.0046 2.3617 3.0068 5.2243 5.1546 1.3598-2.4341 1.8608-3.508 3.6499-7.374l.4294.1432-1.0735 6.8012c-.1431 1.0739-.1431 1.0739-.1431 1.2887 0 .3579.0716.4295.7157 1.2171.4294.4295.6441 1.0022.6441 1.5034 0 1.217-.9304 2.2193-2.147 2.2193-2.648 0-6.8704-3.3648-10.0909-8.0183-3.5784 3.2217-6.5126 4.9399-11.6654 6.8013l-.2863-.358c4.2224-2.8637 7.2998-5.6557 10.2341-9.1637-1.6461-3.4364-2.5765-7.0876-3.0058-12.6718l-7.7293.0716v6.2285c2.648-.4296 3.8646-.6443 6.7989-1.2887l.1431.4296c-3.0058 1.575-4.3656 2.1477-6.942 3.2216v5.5842c0 1.3602 0 1.3602.0716 5.5841-.0716 2.4342-.8588 3.2933-3.43519 3.866-.71567.1432-1.5029.2148-1.86074.2148-.35783 0-.50096-.1432-.50096-.716-.14314-1.0022-.50097-1.8613-1.21664-2.2909-.57253-.3579-.57253-.3579-4.15087-1.5034l.07157-.5012c2.43327.1432 3.4352.1432 6.0116.2148.57254 0 .71567-.0716.71567-.6443v-8.2331c-2.43327.8591-4.22244 1.5035-5.22437 1.8614-.14313 1.2171-.4294 1.6466-.78724 1.6466-.4294 0-.50096-.2863-1.86073-6.0853 2.3617-.0716 4.7234-.2863 7.94391-.7159v-6.8728h-4.65184c-1.5029 0-2.29014.0716-3.29207.2864l-.2147-1.5035c1.00193.2148 2.21857.358 3.50677.358h4.7234v-6.0853c-2.21856.50115-3.79303.71592-7.800769 1.07388l-.429401-.42955c4.7234-1.57502 7.08511-2.5773 9.94777-4.29551 2.07543-1.21706 3.00583-1.78979 4.15083-2.863666 4.2941 2.863666 4.6519 3.150036 4.6519 3.507996 0 .28637-.2863.50114-.6441.50114-.4294 0-.9304-.07159-1.4314-.21477-2.0754.78751-2.8626 1.07387-4.3655 1.50342v7.01596h7.7292c-.2147-2.3625-.2863-4.58184-.3578-7.15914-.0716-2.43412-.0716-3.22163-.3579-4.65346 1.2167.14318 2.147.21477 2.7196.28636 2.5764.21478 3.292.50115 3.292.9307 0 .35796-.3578.57273-1.5029.93069-.0715 2.07616-.0715 3.22163-.0715 4.00914 0 1.86138.0715 4.15231.1431 5.65571h5.5106c1.2882-1.5034 1.6461-1.8613 2.9343-3.22159 2.0038 1.50339 2.6479 2.00459 4.4371 3.50799.1431.1432.2147.2148.2147.358 0 .1431-.1431.2147-.4294.2147zm2.0038-11.02511c4.8666 1.57502 6.6557 2.86367 6.6557 4.58187 0 1.57502-1.2882 3.00684-2.7195 3.00684-.2863 0-.6441-.1432-.7872-.2864-.2863-.28632-.2863-.28632-.7157-2.00452-.501-1.86139-1.0735-3.00685-2.648-5.01142z"/><path d="m49.7388 22.7661c-.3578 3.7228-.8588 5.8706-1.7176 8.2331-1.0735 2.8637-2.4333 4.9398-4.795 7.5171l-.3578-.2147c2.3617-5.6558 3.0058-10.7388 3.0058-23.339 0-7.44551-.0716-12.60012-.2147-14.461501 2.0039 1.073881 2.648 1.360241 4.6518 2.648891h3.5068c.8588-1.14546 1.1451-1.50342 2.0754-2.505708 1.3598.930698 1.7892 1.288648 3.149 2.362528.3578.28637.4294.50114.4294.64433 0 .35796-.2147.50114-1.1451 1.14547v21.33439c0 .2147 0 .8591.0716 1.8613 0 .9307 0 1.0739.0715 6.0853-.0715 1.5035-.4294 2.2194-1.7891 2.9353-.9304.5011-2.2901.9307-3.1489.9307-.5726 0-.5726 0-.6442-1.2887-.1431-1.7182-.9303-2.3625-3.9361-3.15v-.4295c.5009.0715.9303.0715 1.2166.0715 2.0754.1432 2.0754.1432 3.1489.1432.7873 0 .9304-.1432.9304-.7159v-9.8081zm4.3656-9.5933h-3.9362c-.0716 4.6535-.1431 7.0876-.2863 8.7342h4.2225zm0-9.1637h-3.9362c.0716 1.36024.0716 2.21934.0716 2.64889 0 .21478 0 2.36253-.0716 5.65571h3.9362zm19.6808 11.2399c1.3598-1.575 1.7892-2.0046 3.149-3.4364 1.8607 1.5034 2.4332 2.0046 4.1508 3.6512.0716.1432.1432.2863.1432.3579 0 .1432-.2147.2864-.501.2864h-9.4468v19.4014h3.0058c1.4313-1.6466 1.8607-2.1478 3.2921-3.6512 2.0754 1.575 2.6479 2.0762 4.5087 4.0091.0715.0716.1431.1432.1431.2148 0 .1432-.2147.2148-.6441.2148h-20.1818c-.6441 0-1.5745.0716-2.3617.1432l-.2147-1.3603c.9304.2148 1.8607.358 2.648.358h5.3675v-19.3298h-4.1509c-.501 0-1.646.0716-2.648.1432l-.2147-1.3603c1.0735.2148 2.0755.358 2.8627.358h4.1509v-10.30921c0-.71592-.0716-1.07388-.2147-3.79437 5.439.35796 6.6557.64433 6.6557 1.28866 0 .42955-.4294.64432-1.7892 1.07387v11.66945h2.2901z"/><path d="m113.219 3.22165c1.216-1.21706 1.574-1.50343 2.862-2.648896 2.076 1.503426 2.72 2.004566 4.795 3.579586.43.35796.644.64433.644.9307 0 .50114-.572.64432-2.505.7875-4.15 2.93527-6.369 4.36706-9.589 6.01376.572.1431.787.3579.787.6443 0 .3579-.358.6443-1.575 1.0739v4.5102h8.445c1.503-1.7182 2.004-2.2193 3.435-3.9375 2.29 1.7182 2.935 2.2909 5.01 4.0807.143.2148.215.358.215.4296 0 .1432-.215.2863-.43.2863h-16.675v5.799c0 2.1477.072 3.8659.143 8.3762-.071 2.0046-.429 2.8637-1.717 3.7228-1.002.6443-3.221 1.217-4.724 1.217-.357 0-.501-.1431-.501-.5011-.143-.8591-.357-1.3602-.787-1.933-1.0733-1.217-2.0037-1.575-7.1565-2.5773l.0716-.6443c6.5129.358 6.5129.358 9.3039.358h.143c.429 0 .501-.1432.501-.8592v-12.9581h-11.9518c-1.5029 0-2.7911.0716-4.0793.2864l-.2862-1.575c1.5029.2864 2.8626.4295 4.3655.4295h11.8088v-.9307c0-3.4364-.072-4.3671-.358-6.1568 2.433.3579 3.292.4295 4.58.6443 1.575-1.71823 3.435-4.29553 5.368-7.51716h-18.1783c-1.5029 0-2.6479.07159-3.6499.28637l-.2862-1.57502c1.3597.21478 2.4332.35796 3.9361.35796z"/><path d="m140.629 18.9002c.572.2148.787.358 1.288.716 1.002-2.1478 1.574-3.7228 2.004-5.0115 2.29 1.0023 2.576 1.1455 3.292 1.6466.071-6.65799.071-6.65799.071-8.59097 0-2.72049 0-2.93527-.214-6.872813 2.075 1.002283 2.648 1.288653 4.651 2.434123h11.165c1.002-1.07388 1.288-1.43184 2.362-2.434123 1.574 1.073873 2.075 1.360243 3.506 2.577303.287.21478.358.35796.358.50114 0 .28637-.358.57274-1.36 1.28865 0 10.45239.072 13.81719.144 16.39449-.072.9307-.716 1.1455-3.722 1.1455-.644 0-.787-.1432-.787-.6443v-2.0046h-4.008v7.0876h2.934l2.648-3.15c1.789 1.4318 2.362 1.9329 4.08 3.4364.143.1431.214.2147.214.3579s-.143.2148-.501.2148h-9.446v7.3739h4.007c1.217-1.3602 1.575-1.7897 2.934-3.15 1.79 1.4318 2.362 1.933 4.151 3.508.072.1432.143.2148.143.2148 0 .1432-.143.2148-.429.2148h-24.261c-1.217 0-1.646.0715-2.576.2147l-.144-1.2886c.859.1432 1.79.2148 2.863.2148h9.304v-7.374h-6.155c-.787 0-1.36.0716-2.648.2864l-.286-1.4319c1.36.2148 1.789.2864 2.934.2864h6.083v-7.0876h-3.864v1.7182c0 1.0023-.43 1.2171-3.364 1.2171-.644 0-.93-.1432-.93-.7159.071-1.5751.071-1.5751.071-4.7967-.358.0716-.501.0716-.644.0716s-.215 0-.429-.0716c-1.646 1.4318-2.863 2.4341-3.364 2.7921 2.362 1.7182 3.292 2.8637 3.292 3.8659 0 1.3603-1.217 3.0069-2.29 3.0069-.501 0-.787-.4295-.93-1.2887-.144-1.0738-.716-2.8636-1.217-4.2955-.286-.7159-.501-1.217-1.002-1.7182v9.9513c0 1.2886.072 5.7273.143 7.2308-.071.4295-.143.5727-.358.7159-.429.2148-1.431.3579-2.791.3579-1.216 0-1.431-.1431-1.431-.6443 0-.0716 0-.0716 0-.1432.071-1.2886.215-6.5864.215-7.7319v-7.5171c-1.503 1.3602-2.577 2.2909-5.153 4.0091l-.286-.2863c4.794-5.5126 7.371-10.1661 9.303-16.53775h-5.654c-.858 0-1.502.0716-2.719.28637l-.43-1.50343c.716.14319 2.577.35796 3.078.35796h1.646v-3.22163c0-1.50342-.143-3.4364-.286-4.868237 1.216.071591 2.075.143183 2.719.214775 2.433.143184 3.578.501142 3.578 1.002282 0 .42955-.429.71592-1.574 1.07388v5.72734h.644c.787-.8591 1.002-1.07388 1.861-2.00457 1.36 1.00229 1.717 1.36025 2.934 2.50571.215.21478.358.42955.358.57274 0 .07159-.143.21477-.215.35796-.214.14318-.429.21477-1.431.5011-1.503 3.2933-2.362 4.7967-4.151 7.1592v1.575zm10.735-14.89105v6.94435h3.864v-6.94435zm3.864 7.87505h-3.864v7.2308h3.864zm4.151-.8591h4.008v-7.01595h-4.008zm3.936 8.0899v-7.2308h-4.007v7.2308z"/><path d="m187.004 8.44784c1.002-1.00228 1.288-1.28865 2.29-2.36253 1.503 1.00229 1.861 1.28866 3.221 2.36253.357.28637.429.42955.429.64433 0 .28637-.215.50114-1.288 1.07383v4.8683c0 10.8819 0 14.1036.071 17.8979 0 .9307-.501 1.0739-2.862 1.0739-1.36 0-1.503-.0716-1.575-.7159v-2.2194h-5.725v3.1501c0 1.0023-.43 1.1455-2.863 1.1455-1.431 0-1.646-.1432-1.646-.7876.215-7.4455.215-9.3069.215-14.3899 0-6.4433-.072-11.02514-.215-14.24677 2.076.93069 2.72 1.28865 4.58 2.43412h.287c.715-3.07845 1.002-5.36938 1.002-8.018279 1.288.286367 2.29.501143 2.934.644329 2.648.50114 3.507.8591 3.507 1.28865s-.501.64433-1.933.78751c-2.075 2.93526-2.719 3.86595-4.007 5.29779h3.578zm.358 10.16606v-9.30696h-5.726v9.30696zm-5.726.8591v10.8103h5.726v-10.8103zm25.836-11.02516c1.145-1.21706 1.503-1.57502 2.648-2.64889 1.503 1.14547 2.004 1.50342 3.292 2.64889.358.35796.501.57274.501.78751 0 .35796-.286.57274-1.503 1.14545-.215 9.4501-.501 13.1729-1.216 18.0411-.859 6.0853-1.933 8.1615-4.652 8.949-.716.2148-2.29.4296-2.935.4296-.429 0-.572-.1432-.572-.7159-.143-2.291-1.718-3.3649-6.441-4.3671l.071-.5012c5.225.358 5.511.358 7.801.358 1.002 0 1.217-.2148 1.575-1.575.429-1.7183 1.073-5.8706 1.288-9.0206.286-3.866.429-7.6603.429-12.67176h-8.802c-2.076 3.93756-4.008 6.65806-6.871 9.37856l-.429-.2148c2.719-5.1546 4.866-12.95812 5.081-18.112729 5.439 1.145469 6.656 1.503429 6.656 2.076159 0 .42955-.43.57274-2.004.9307-.716 2.29093-1.145 3.29322-2.076 5.1546h8.159zm-10.52 6.01376c5.153 2.8636 7.514 5.2262 7.514 7.4455 0 1.8614-1.503 3.7944-2.934 3.7944-.787 0-1.074-.4296-1.36-2.0046-.644-3.2932-1.574-5.7989-3.435-9.0206z"/><path d="m243.255 15.3206h4.366c1.288-1.3602 1.718-1.8613 2.934-3.2932 1.933 1.5035 2.577 1.933 4.437 3.4364.143.1432.215.2864.215.358 0 .1432-.215.3579-.429.3579h-11.594v10.0229h6.226c1.431-1.575 1.861-2.0046 3.364-3.5796 2.004 1.575 2.648 2.0762 4.58 3.7944.143.1432.215.2863.215.3579 0 .1432-.143.2864-.43.2864h-13.884v3.5796c0 .6443.072 3.7228.144 6.2285 0 .7159-.144.9307-.501 1.0738-.358.1432-1.503.2864-2.72.2864-1.431 0-1.646-.1432-1.646-.7875 0-.0716 0-.1432 0-.2148.143-4.6534.143-5.4409.143-6.3716v-3.866h-14.743c-.572 0-2.648.1432-3.506.2148l-.215-1.4319c1.789.2148 2.505.358 3.721.358h2.648v-8.591c0-2.2909-.071-3.15-.143-5.1546 2.362 1.2886 3.078 1.7182 5.368 3.0068h6.942v-7.94665h-7.944c-3.078 4.08075-5.797 6.65805-9.733 9.37855l-.358-.4296c2.576-3.2932 4.079-5.6557 5.654-9.09213 1.288-2.86367 2.075-4.93983 2.576-7.087587 4.151 1.145467 6.155 1.789797 6.584 2.076157.143.0716.215.21478.215.42955 0 .42956-.286.57274-2.147.78751-1.217 1.7898-1.503 2.21935-2.147 3.00686h17.247c1.002-1.14547 2.076-2.29094 3.149-3.43641 2.147 1.57502 2.72 2.07617 4.795 3.72278.144.14318.215.21477.215.35795 0 .14319-.143.28637-.429.28637h-12.954v7.87505zm-12.166.8591v10.0229h7.443v-10.0229z"/><path d="m279.54 13.1729c4.151 1.575 5.654 2.7205 5.654 4.2955 0 1.2886-1.217 2.7205-2.72 3.0068.358.0716.644.0716.787.0716 2.434.2148 3.006.358 3.006.7875 0 .358-.358.5728-1.646.9307v1.3603h8.946c1.288-1.5034 1.718-2.0046 3.006-3.3648 2.075 1.5034 2.648 2.0045 4.652 3.5796.143.1431.214.2147.214.3579s-.143.2148-.429.2148h-15.888c1.002 1.2886 2.076 2.0762 4.151 3.15 3.936 2.0762 6.656 2.8637 12.81 3.4364l-.071.4296c-1.145.5727-1.575 1.0023-2.219 1.933-.358.5727-.787 1.3602-1.002 1.8614-.214.6443-.286.7159-.572.7159-.644 0-2.863-.9307-4.509-1.8614-4.008-2.291-6.369-4.5819-9.16-9.0922v4.3671c0 1.8614.071 4.8683.214 7.5172 0 .9307-.644 1.217-3.077 1.217-1.36 0-1.575-.1432-1.575-.9307.144-3.3648.215-5.7273.215-7.3739v-2.5773c-3.006 3.0068-5.01 4.3671-8.445 6.0137-2.862 1.3602-4.866 2.0761-8.516 2.9352l-.143-.4295c3.793-1.8614 6.226-3.508 9.303-6.2285 2.147-1.8614 3.006-2.8637 4.867-5.2262h-9.733c-1.503 0-2.004.0716-3.221.2148l-.214-1.5034c1.073.2147 2.075.3579 3.435.3579h12.882v-.7875c0-.7875-.072-1.3602-.143-2.5773l1.646.1432c-.501-.358-.644-.5727-.931-1.8614-.357-1.8614-.93-3.2932-1.86-5.1546zm-4.724-9.02058c0-.42955 0-.8591 0-1.00228 0-1.28865-.071-1.86139-.214-3.15004 5.224.429551 5.367.429551 5.94.715918.143.071592.286.214775.286.357962 0 .35796-.429.57273-1.646.93069v2.14775h7.157c0-.21477 0-.57273 0-1.00228 0-1.21706-.072-1.86139-.143-3.0784482 5.367.5011422 6.083.6443262 6.083 1.1454682 0 .35796-.43.57273-1.718.8591v2.07616h3.793c1.288-1.43183 1.718-1.86138 3.006-3.15004 2.075 1.43184 2.648 1.86139 4.58 3.43641.143.14318.215.28637.215.35796 0 .14318-.143.21477-.501.21477h-11.236v2.29094c0 .35796-.143.50114-.358.64433-.358.14318-1.717.21477-2.719.21477-1.074 0-1.289-.14318-1.289-.78751l.072-2.43412h-7.157c0 1.28865 0 1.57502.072 3.07845-.072.78751-.501.93069-3.149.93069-1.074 0-1.288-.14318-1.288-.78751.071-2.29093.071-2.29093.071-3.22163h-6.727c-1.503 0-2.075.07159-3.292.21478l-.215-1.50343c1.217.35796 2.076.42955 3.507.42955h6.87zm-8.731 8.37628c6.084-.5012 11.165-1.2887 16.532-2.3626 5.869-1.21703 8.374-1.93295 10.234-2.93523 3.436 2.00457 4.867 2.93523 4.867 3.36483 0 .2148-.286.4295-.644.4295-.501 0-1.074-.0716-1.718-.2147-6.369 1.3602-9.733 1.7898-15.745 2.1477-3.22.1432-6.512.2864-8.945.2864-1.217 0-2.362-.0716-4.509-.0716zm3.292 1.0738c2.792 1.0739 4.151 1.7898 5.153 2.6489.787.716 1.288 1.5751 1.288 2.3626 0 1.4318-1.431 3.2216-2.648 3.2216-.644 0-.93-.4296-1.288-2.0046-.644-2.3625-1.288-3.7943-2.791-5.9421zm17.821 8.3047c2.719-3.7944 4.365-6.8012 5.439-9.8797 5.009 2.0762 5.51 2.291 5.51 2.7921 0 .4295-.429.5727-1.86.5727h-.072c-3.65 3.508-5.439 4.9399-8.731 6.8012z"/><path d="m29.5571 68.0876c1.3597-1.5034 1.7891-2.0046 3.2205-3.508 2.0754 1.5034 2.7195 2.0046 4.7234 3.6512.2147.2147.2862.3579.2862.4295 0 .2148-.2147.2864-.5725.2864h-21.1122c-1.0019 2.0046-1.8607 3.3648-3.2205 5.2262.3578.2148.4294.3579.7872.5011h13.0252c1.0019-1.0738 1.2882-1.3602 2.3617-2.4341 1.646 1.0739 2.147 1.4318 3.5783 2.5773.4294.2864.501.4296.501.6443 0 .358-.4294.6444-1.5745 1.2171v9.0922c0 2.2909 0 4.5818.0716 9.0205-.0716 2.3626-.8588 3.4364-3.1489 4.0092-.7157.2147-2.0039.4295-2.5764.4295-.4294 0-.5726-.1432-.6441-.7159-.0716-1.0023-.501-1.7898-1.4314-2.3625-.7872-.5012-1.5744-.716-4.5802-1.3603v-.5011c4.5802.1432 4.5802.1432 6.8704.2148.7156 0 .8588-.1432.8588-.7876v-5.7989h-13.4546v10.5956c-.0716.7875-.6441 1.0023-3.0058 1.0023-1.50289 0-1.71759-.1432-1.71759-.8591.14313-4.3671.2147-8.8774.2147-11.2399v-8.4479c-2.64797 2.7205-4.72341 4.3671-8.731143 6.6581l-.286267-.5728c4.93811-4.8682 8.73114-10.2376 11.236-16.1081h-7.3714c-1.14506 0-2.00386.0716-3.148933.2148l-.143133-1.4319c1.216636.2148 2.147006.358 3.292066.358h7.7292c1.1451-2.9353 1.5745-4.5103 1.8607-6.9444 6.2264 1.2886 6.7989 1.4318 6.7989 2.0046 0 .4295-.501.6443-2.0755.8591-.7156 1.9329-1.0019 2.7204-1.646 4.0807zm-2.5764 12.6001v-5.083h-13.4546v5.083zm-13.4546 6.1569h13.4546v-5.2978h-13.4546z"/><path d="m74.6442 78.1104c.9304-1.0738 1.2882-1.3602 2.2186-2.4341 1.5029 1.2171 2.0038 1.575 3.5067 2.8637.3579.358.4294.5011.4294.7159 0 .4296-.3578.6443-1.7891 1.2171-1.8608 4.3671-3.2921 6.8728-5.5107 9.4501 2.648 1.7898 5.1528 2.7921 9.3037 3.5796v.3579c-1.2882.716-1.7176 1.2171-2.3617 2.5773-.3578.716-.4294.7875-.5725 1.5035-.1432.2863-.2863.4295-.501.4295-.3578 0-1.0735-.3579-2.3617-1.0739-1.8607-1.0738-4.0078-2.8636-5.7969-4.8682-1.8608 1.575-3.5784 2.7205-5.5822 3.7944-2.2902 1.217-4.1509 1.8613-8.3733 2.9352l-.1432-.3579c5.7969-2.9353 8.6596-5.083 12.0948-9.1638-2.0754-3.508-3.0058-6.2285-3.7215-10.524h-1.2882c-.2862 5.083-1.0019 8.5195-2.3617 11.3831-1.5029 3.2932-3.793 5.8705-7.3713 8.5194l-.2863-.2147c4.1509-5.7274 5.5822-10.4524 6.0116-20.1889-.3578.0716-.4294.0716-.7157.0716-1.5029 1.2886-2.6479 2.1477-3.8646 3.0068 2.147 1.2887 2.9343 2.291 2.9343 3.508 0 1.5751-1.0735 3.0785-2.2902 3.0785-.6441 0-.9303-.358-1.0735-1.3603-.5725-3.3648-1.0019-4.4387-2.147-5.5841v9.8796c.0716 1.5035.0716 3.0785.0716 4.7251 0 1.7898 0 1.7898.0716 2.4341 0 .5012-.1432.7159-.4294.7875-.3579.1432-1.5029.2864-2.5764.2864-1.2167 0-1.5745-.1432-1.5745-.7159 0 0 0-.0716 0-.1432 0-.7875 0-.7875.0716-3.2932 0-1.0739 0-2.4341.0715-4.0808v-7.3739c-1.4313 1.2886-2.2901 1.8614-4.8665 3.5796l-.2863-.358c2.4333-2.7921 4.0793-5.1546 5.8685-8.3046 1.5029-2.7205 2.3617-4.8683 3.4352-8.2331h-6.0832c-.7872 0-1.3597.0716-2.3617.2148l-.5009-1.575c.6441.1432 2.2901.2863 2.7911.2863h1.8607v-4.2955c0-1.2886-.0716-2.2193-.1431-3.7943 5.2959.5011 6.0831.7159 6.0831 1.3602 0 .358-.4294.6443-1.5744 1.0023v5.7273h.7156c.7873-.9306 1.0735-1.217 1.9323-2.1477 1.3598 1.0739 1.8608 1.3602 3.2205 2.5773.2147.2148.3579.3579.3579.5011 0 .4296-.4294.716-1.7892 1.0023-1.8607 3.508-2.648 4.7967-4.4371 7.2308v1.575l.2862.1432c.6441.2148.7873.2864 1.2167.5011.9303-2.0045 1.8607-4.4387 2.0754-5.6557 3.0774 1.5034 3.0774 1.5034 3.5783 1.8614.0716-1.3603.0716-3.4364.0716-5.0115 0-2.7204-.0716-4.0807-.3578-6.2284 2.2901 1.217 2.9342 1.575 5.0812 2.8636h3.4352v-3.508c0-.9307-.1431-2.9352-.2147-3.7943 5.7254.5011 6.1548.6443 6.1548 1.217 0 .358-.501.716-1.7176 1.0739v5.083h3.3636c.9304-1.1454 1.2166-1.5034 2.2901-2.7205 1.7892 1.3603 2.3617 1.8614 4.2225 3.4364.1431.358.2147.358.2147.5012s-.1432.3579-.2863.4295c0 .0716-.501.0716-1.5745.2148-.9303.7875-1.2882 1.0739-2.6479 2.3625-1.2882 1.1455-1.8608 1.5751-2.8627 2.2194l-.2863-.2148c.7157-1.7182 1.0735-3.2216 1.5029-5.3694h-3.8646v8.4479h2.0039zm-6.3695-8.4478h-4.0077c0 3.4364-.0716 6.3001-.1431 8.4478h4.1508zm-2.0754 9.3069c.501 2.0046.7872 2.7205 1.5029 4.0808.7872 1.7898 1.5745 2.7921 2.9342 4.2955 1.6461-2.4341 3.0059-5.3694 4.0078-8.4478h-8.4449z"/><path d="m109.283 94.4334h8.516c1.145-1.3603 2.29-2.7205 3.435-4.0808 2.219 1.7898 2.934 2.3625 5.081 4.1523.144.1432.287.358.287.4296 0 .1432-.215.2864-.501.2864h-33.7798c-1.2166 0-2.7195.0715-3.793.2147l-.2147-1.5034c1.2166.2148 2.6479.4296 4.0793.4296h12.0232v-27.2765h-10.0909c-1.2882 0-2.147.0716-3.2205.2148l-.2147-1.4319c1.145.2148 2.3617.358 3.5067.358h21.3984c1.431-1.6466 1.861-2.1478 3.292-3.7228 2.147 1.6466 2.863 2.2194 4.938 4.0808.143.1431.215.2147.215.3579s-.143.2148-.429.2148h-14.457v27.2765z"/><path d="m162.528 65.5819c1.288-1.4319 1.718-1.8614 3.006-3.2932 2.004 1.5034 2.648 1.9329 4.58 3.508.143.1431.215.2863.215.3579 0 .1432-.215.2148-.429.2148h-31.204c-.071 18.3991-1.574 25.4151-7.228 32.2879l-.358-.2864c2.434-6.3001 3.436-13.9604 3.436-28.7083 0-2.7921-.072-4.5103-.215-6.8012 2.29 1.0739 3.006 1.4318 5.081 2.7205h10.163v-2.0762c0-.8591-.072-1.3602-.287-2.5057 5.726.4296 6.441.5011 6.441 1.0739 0 .3579-.429.6443-1.717 1.0023v2.5057zm-10.663 12.6001c.715-.7875.93-1.0023 1.646-1.7898 1.073.7159 1.503.9307 2.576 1.6466.358.2148.501.4296.501.5728 0 .2863-.215.5011-1.073 1.0023v14.7479c0 2.0761-.573 2.9352-2.362 3.7227-.573.2148-1.575.4296-2.076.4296-.357 0-.429-.1432-.429-.5728-.143-2.0045-.644-2.4341-3.292-3.2216l.072-.5011c1.86.2148 2.433.2148 4.294.2863.429-.0715.501-.1431.501-.5011v-14.9627h-9.447v18.9002c-.072.358-.072.5012-.287.6444-.357.2148-1.216.3579-2.361.3579-.787 0-1.002-.1432-1.002-.5011 0-.0716 0-.1432 0-.2148.143-4.2955.286-11.3115.286-16.6093 0-1.7898-.071-3.2932-.143-5.1546 1.646.7159 2.147.9307 3.578 1.7182h2.935v-7.8751c0-.7875-.072-1.5034-.215-2.9352 1.002.0716 1.861.1432 2.362.2147 2.29.2148 2.862.358 2.862.7876 0 .2863-.358.5011-1.36.9306v8.8774zm-11.737-9.5933c3.363 2.5057 4.58 3.9376 4.58 5.5126 0 1.3602-1.073 2.7205-2.219 2.7205-.501 0-.715-.358-.787-1.2887-.358-3.0068-.787-4.5818-1.861-6.658zm7.944 13.8172c.501-.6443.715-.7875 1.216-1.3602.788.6443 1.074.7875 1.789 1.4318.215.2148.358.358.358.4296 0 .2148-.286.5011-.787.7875v1.8614c0 .7159 0 1.5034.072 6.5864 0 .5728-.43.7159-1.79.7159-.644 0-.715-.0716-.715-.4295v-1.0023h-1.789v1.6466c-.072.358-.144.4296-.43.5012-.214.0715-1.073.1431-1.503.1431-.501 0-.644-.1431-.644-.5727.072-4.8682.072-4.8682.072-6.5864 0-2.5773-.072-4.0092-.143-5.7274 1.002.5012 1.86 1.0739 2.648 1.5034h1.646zm-1.718 8.2331h1.789v-7.374h-1.789zm3.793-13.5309c1.288-3.4364 2.076-6.0853 2.29-8.5194 4.437 1.7182 4.724 1.8614 4.724 2.291 0 .3579-.43.5011-1.432.6443-1.789 2.5773-2.862 3.7228-5.224 5.7989zm18.106-1.3602c-.858 6.5864-1.789 9.6649-3.936 13.6024 2.29 2.3626 4.08 3.5796 7.014 4.5819l-.072.5012c-1.145.3579-1.574.8591-2.147 2.4341-.143.3579-.286.8591-.429 1.217-.143.358-.143.4296-.358.4296-.143 0-.358-.0716-.787-.358-1.575-1.0738-3.435-3.2932-5.153-6.0853-2.147 2.7205-4.437 4.6535-8.015 6.8012l-.287-.3579c3.006-3.0069 5.153-6.0137 6.799-9.4501-1.217-3.0069-1.861-5.5842-2.362-9.0922-.787 1.3603-1.288 2.0762-2.576 3.7228l-.429-.2148c1.073-2.6489 1.574-4.2955 2.147-7.3023.787-3.7228 1.216-6.3717 1.288-8.949 5.153 1.0023 5.654 1.1455 5.654 1.575 0 .358-.358.5011-1.646.7875-.716 2.3625-1.074 3.4364-1.861 5.1546h3.65c1.288-1.575 1.288-1.575 2.218-2.7921 1.646 1.2887 2.147 1.7182 3.722 3.1501.143.1432.214.2148.214.3579 0 .1432-.143.2148-.357.2148h-2.291zm-7.514 0c-.501 1.2171-1.002 2.2194-1.646 3.2932.644 3.1501 1.431 5.0114 2.934 7.374 1.217-3.4364 2.004-7.0876 2.29-10.7388h-3.578z"/><path d="m182.495 70.3785c.072-1.575.072-2.792.072-4.3671 0-2.0045-.072-2.7204-.143-4.3671 6.298.716 6.298.716 6.298 1.3603 0 .4295-.143.5011-1.575 1.0739-.143 1.7898-.143 1.7898-.215 5.083 0 .4295 0 .5727-.071 1.2886h3.721c.859-1.0022 1.145-1.3602 2.147-2.2909 1.432.9307 1.861 1.2887 3.221 2.2909.358.358.501.5012.501.716 0 .3579-.358.6443-1.36 1.217-.071 1.5034-.071 1.5034-.286 8.1615-.143 3.4364-.43 7.3739-.931 10.8819-.429 3.0069-1.145 4.8683-2.361 5.6558-1.074.7159-2.648 1.217-4.08 1.217-.429 0-.429-.0716-.501-.7875-.143-2.0045-1.145-2.7921-4.58-3.7228l.072-.5011c2.147.1432 2.361.1432 2.719.2148 1.002.0716 1.718.0716 1.789.1432.43.0716.788.0716 1.074.0716.93 0 1.217-.4296 1.503-2.0046.358-1.8614.859-6.9444 1.002-10.524.143-2.7205.215-4.6535.286-9.8797h-4.008c-.357 7.2308-1.216 12.457-2.648 16.1798-1.574 4.0807-4.222 7.7319-8.015 11.2399l-.358-.358c2.648-4.0091 4.366-8.3046 5.439-13.316.787-3.9376 1.074-7.4456 1.288-13.6741h-3.005c-.645 0-1.074.0716-2.648.2864l-.215-1.5034c1.073.2147 2.147.3579 2.934.3579h2.934zm19.824 26.3458c0 .6443-.143.9307-.715 1.0739-.43.1432-1.289.2148-2.362.2148-1.288 0-1.503-.1432-1.575-1.0023.144-9.0206.144-9.0206.144-20.2605 0-4.5819-.072-7.4455-.215-11.2399 2.147 1.0023 2.863 1.3602 4.866 2.5773h5.082c1.073-1.1455 1.073-1.1455 2.29-2.4341l3.149 2.4341c.429.358.501.5011.501.7159 0 .2864-.215.5012-1.288 1.1455-.072 1.7898-.072 2.9353-.072 3.4364 0 12.5286.072 16.0365.286 22.7662 0 1.217-.429 1.3602-3.292 1.3602-1.145 0-1.36-.1432-1.431-.8591v-2.1477h-5.439v2.2193zm0-3.0068h5.439v-24.6992h-5.439z"/><path d="m231.805 79.3275c4.437 1.7898 5.94 2.9353 5.94 4.7967 0 1.6466-1.217 3.2932-2.362 3.2932-.501 0-.787-.358-1.073-1.575-.716-2.9353-1.503-4.7967-2.505-5.7274v3.2932l.071 15.0343c-.071.9307-.429 1.0023-2.934 1.0023-1.36 0-1.574-.1432-1.574-.7875.143-5.7274.286-9.3785.357-11.1683l.072-3.4364c-2.433 4.3671-4.294 6.8728-7.228 9.5217l-.358-.358c3.006-5.2262 5.01-10.0228 6.656-16.3945h-3.865c-.787 0-1.217.0716-2.004.2148l-.215-1.3603c.788.2148 1.289.358 2.219.358h4.723v-8.949c0-1.7898-.071-3.0784-.357-5.5125 5.367.3579 6.154.5011 6.154 1.0738 0 .358-.501.6443-1.646.9307v12.3854h1.575c.93-1.2171 1.216-1.575 2.147-2.7205 1.431 1.2171 1.789 1.575 3.006 2.9353.143.1432.214.2863.214.4295s-.214.2148-.501.2148h-6.512zm-10.234-15.1059c3.149 2.7205 4.652 5.0831 4.652 6.9444 0 1.5751-1.36 3.2933-2.577 3.2933-.358 0-.644-.1432-.716-.5728-.071-.2863-.071-.2863-.143-2.5773-.071-2.5773-.501-4.5103-1.574-6.9444zm10.949 10.0945c1.217-3.2932 2.076-6.8728 2.434-10.166 1.932.6443 3.793 1.4318 4.437 1.7897.286.1432.429.358.429.5012 0 .3579-.429.5011-1.36.6443-2.719 4.2955-3.148 4.7967-5.582 7.374zm21.614 10.8819c.787-1.575 1.002-2.0761 1.789-3.7943 1.717 1.2886 2.147 1.7182 3.578 2.9352.215.1432.358.2864.358.4296s-.143.2147-.429.2863l-5.869 1.1455c.072 7.5171.072 7.5171.215 12.1706-.072.7875-.644 1.0023-3.149 1.0023-1.503 0-1.718-.1432-1.718-.7875.072-2.2909.072-2.2909.143-11.5263l-10.806 2.1478c-.644.1431-1.002.2147-1.861.6443l-.573-1.4318c.215.0715.43.0715.645.0715.501 0 .93-.0715 1.646-.2147l11.021-2.1478.071-4.3671v-5.6557c0-8.8774-.071-11.9558-.357-14.6047 5.152.5011 5.51.5011 5.94.7159.358.1432.501.2863.501.5011 0 .4296-.501.7159-1.718 1.0023-.072 9.0206-.072 9.0206-.072 10.7388 0 2.7205 0 3.5796.072 10.8103zm-15.029-9.5217c3.22 1.0023 4.079 1.3603 5.582 2.3626 1.288.7875 1.789 1.5034 1.789 2.6488 0 .9307-.358 1.933-.93 2.5773-.43.5012-1.146.9307-1.646.9307-.645 0-.931-.4295-1.36-1.7182-.644-2.0761-1.718-4.0091-3.579-6.4432zm1.145-10.6671c5.081 1.8613 7.085 3.4364 7.085 5.5125 0 1.6466-1.36 3.4364-2.648 3.4364-.358 0-.644-.1432-.787-.3579-.215-.2148-.215-.2148-.573-1.6466-.644-2.4342-1.646-4.3671-3.292-6.5865z"/><path d="m269.592 88.8492c-.072.9307-.501 1.0739-2.863 1.0739-1.002 0-1.216-.1432-1.216-.7159.143-4.7967.214-8.4478.214-13.3877 0-7.016-.071-9.0205-.214-12.6717 1.86 1.0023 2.433 1.2886 4.151 2.4341h3.077c.93-1.0023 1.217-1.2887 2.075-2.2909 1.36 1.0022 1.718 1.2886 2.935 2.3625.286.2148.429.4295.429.5727 0 .2864-.286.5012-1.36 1.0739v14.3184c0 .8591 0 1.0738.072 5.3693-.072.4296-.143.6444-.43.716-.286.1431-1.717.2863-2.433.2863s-.93-.1432-.93-.7159v-1.7898h-3.435v3.3648zm0-4.2239h3.435v-18.2559h-3.435zm10.663 2.1478c.215 1.0738.358 1.7182.358 2.6489 0 1.5034-.429 3.8659-.93 4.9398-.644 1.5034-1.646 2.2909-2.791 2.2909-1.074 0-2.076-1.2886-2.076-2.7205 0-.5011.144-1.0022.358-1.2886.215-.358.215-.358 1.861-1.3603 1.288-.7875 2.075-2.0045 2.719-4.3671zm14.314-16.3946c1.002-1.217 1.36-1.575 2.361-2.7204 1.718 1.2886 2.148 1.7182 3.722 3.0068.143.1432.215.2148.215.2864 0 .2147-.215.2863-.501.2863h-7.586v5.2262h1.789l2.505-2.8636c1.717 1.3602 2.147 1.7898 3.721 3.15.143.1432.215.2148.215.2864 0 .2148-.215.2863-.501.2863h-7.729v5.6558h4.15c1.002-1.0739 1.289-1.3603 2.291-2.2909 1.359 1.0738 1.86 1.3602 3.149 2.5057.357.2863.501.4295.501.6443 0 .358-.144.5011-1.36 1.2886-.143 1.2171-.143 1.2171-.716 5.5842-.501 4.7251-1.503 6.8012-3.507 7.7319-.858.4296-2.576.8591-3.435.8591-.716 0-.787-.0716-.859-.8591-.214-2.0761-1.216-2.7205-5.224-3.7943v-.5012c5.654.358 5.94.358 6.369.358.931 0 1.36-.358 1.79-1.6466.644-2.0762 1.073-5.0831 1.216-9.0206h-13.025l-.072.6443c-.071.7875-.214.8591-2.147.8591h-.429c-.215 0-.358 0-.429 0-.143 0-.287 0-.358 0-.787 0-1.002-.1432-.931-.8591.144-6.2285.144-8.5194.144-13.8172 0-2.7205-.072-2.7921-.144-5.7273l-.143-3.0785c2.147 1.0023 2.863 1.3603 4.867 2.5773h10.377c1.36-1.3602 1.789-1.7898 2.934-3.0068 1.861 1.4318 2.434 1.8614 4.151 3.2932.143.1432.215.2148.215.358 0 .1431-.143.2147-.43.2147h-9.017v5.1546h1.861zm-11.809 15.965c2.219 2.2194 3.579 4.4387 3.579 5.8705 0 1.5035-1.503 3.2217-2.863 3.2217-.644 0-.93-.4296-.93-1.1455 0-.1432 0-.4296.071-.7159.143-1.7898.215-3.0069.215-3.6512 0-1.0739-.143-1.7898-.43-3.2932zm6.083-21.1196h-4.723v5.1546h4.723zm-4.723 6.0137v5.2262h4.723v-5.2262zm0 6.0853v5.6558h4.723v-5.6558zm2.219 8.3763c3.506 1.7898 5.081 3.15 5.081 4.5819 0 1.217-1.217 2.7204-2.219 2.7204-.644 0-.93-.4295-1.073-1.7897-.358-2.2194-.716-3.2217-2.076-5.2263zm3.793-.8591c3.864.7159 5.51 1.7182 5.51 3.2216 0 1.2171-.93 2.5773-1.717 2.5773-.43 0-.644-.2864-1.217-1.5034-.644-1.575-.93-2.0046-2.863-4.0092z"/><path d="m320.905 86.8446c-.071-.4295-.071-.7875-.071-1.0023 0-2.9352.787-4.7966 3.22-7.4455 1.575-1.7182 2.075-2.4341 2.576-3.4364.501-1.2171.788-2.4341.788-3.7228 0-3.508-1.861-5.8705-4.867-5.8705-1.574 0-3.006.7159-3.65 1.7898-.501.8591-.93 2.4341-.93 3.508l.071 1.575c0 1.2887-.93 1.933-2.648 1.933-2.003 0-3.005-.7159-3.005-2.1478 0-2.9352 2.004-5.5125 5.367-6.8012 1.575-.6443 3.292-.9307 5.439-.9307 6.083 0 9.876 2.8637 9.876 7.4456 0 1.8613-.572 3.3648-1.789 4.6534-.93.9307-1.574 1.5034-3.864 2.8637-3.793 2.2909-4.652 3.5796-4.867 7.6603h-1.646zm4.294 6.0853c0 1.8614-1.503 3.4364-3.435 3.4364-1.861 0-3.435-1.5034-3.435-3.4364 0-1.8614 1.503-3.3648 3.435-3.3648 1.932-.0716 3.435 1.4318 3.435 3.3648z"/></g></svg>